<svg id="svg" version="1.1" xmlns="http://www.w3.org/2000/svg" xmlns:xlink="http://www.w3.org/1999/xlink" width="400" height="400" viewBox="0, 0, 400,400"><g id="svgg"><path id="path0" d="M290.000 84.895 C 288.790 85.106,278.832 85.360,267.871 85.460 L 247.942 85.642 247.180 87.321 C 246.498 88.823,246.417 90.025,246.409 98.710 L 246.400 108.420 245.300 108.910 C 244.448 109.290,224.967 109.445,158.761 109.600 C 87.150 109.768,73.216 109.889,72.661 110.349 C 72.053 110.854,72.000 114.775,72.000 159.426 L 72.000 207.955 72.889 208.577 C 73.571 209.055,74.871 209.200,78.473 209.200 C 85.105 209.200,84.800 208.736,84.800 218.826 C 84.800 225.663,84.887 226.774,85.461 227.251 C 86.014 227.710,97.935 227.842,157.961 228.054 L 229.800 228.308 230.700 227.484 C 231.576 226.682,231.600 226.449,231.600 218.592 C 231.600 208.349,231.078 209.030,238.746 209.274 C 243.124 209.414,244.540 209.599,245.366 210.141 L 246.417 210.829 246.308 237.395 C 246.231 256.447,246.072 264.088,245.749 264.411 C 244.658 265.502,238.762 265.581,157.989 265.590 C 82.429 265.599,73.687 265.664,72.889 266.223 L 72.000 266.845 72.000 295.369 C 72.000 323.619,72.008 323.902,72.829 324.946 L 73.658 326.000 136.249 326.000 C 188.707 326.000,199.015 326.089,199.920 326.553 C 201.727 327.477,288.696 328.061,317.600 327.343 C 332.581 326.971,332.654 326.958,333.751 324.646 C 334.671 322.708,334.567 88.114,333.646 86.321 C 333.221 85.496,332.629 85.144,331.126 84.821 C 328.650 84.291,293.109 84.355,290.000 84.895 M313.648 116.407 C 315.676 116.970,315.591 115.241,315.593 156.000 C 315.596 192.556,315.524 194.501,314.132 195.657 C 313.388 196.275,300.605 196.331,279.256 195.809 L 267.112 195.512 265.556 193.956 L 264.000 192.400 264.002 156.700 C 264.004 134.492,264.153 120.464,264.399 119.582 C 265.264 116.465,264.619 116.625,277.267 116.385 C 298.292 115.986,312.164 115.994,313.648 116.407 M103.800 123.274 C 104.680 123.720,106.075 124.430,106.901 124.852 C 111.097 126.998,113.056 134.836,110.637 139.801 C 109.252 142.645,108.958 143.013,106.299 145.232 C 102.080 148.753,95.066 147.954,90.600 143.444 C 87.152 139.963,85.848 132.507,88.094 129.116 C 92.090 123.081,98.623 120.651,103.800 123.274 M139.805 124.353 C 142.284 125.555,143.163 126.210,143.698 127.253 C 144.078 127.994,144.797 129.108,145.295 129.729 C 146.102 130.736,146.200 131.300,146.200 134.929 L 146.200 139.000 144.671 141.000 C 138.369 149.241,129.138 148.914,123.872 140.263 C 122.058 137.283,122.039 131.061,123.840 129.567 C 124.153 129.307,124.748 128.328,125.162 127.392 C 125.729 126.111,126.247 125.580,127.258 125.244 C 127.996 124.999,129.486 124.349,130.568 123.799 C 133.530 122.295,135.849 122.434,139.805 124.353 " stroke="none" fill="#394b52" fill-rule="evenodd"></path><path id="path1" d="M287.400 116.400 C 286.740 116.568,286.519 116.727,286.910 116.753 C 288.342 116.848,288.400 118.358,288.400 155.795 L 288.400 192.739 287.364 193.969 L 286.329 195.200 276.664 195.273 L 267.000 195.346 279.200 195.728 C 298.643 196.338,313.349 196.308,314.132 195.657 C 315.524 194.501,315.596 192.556,315.593 156.000 C 315.591 115.241,315.676 116.970,313.648 116.407 C 311.971 115.941,289.227 115.935,287.400 116.400 M264.094 156.276 C 264.042 176.118,264.135 192.436,264.300 192.538 C 264.572 192.706,264.569 167.254,264.294 133.200 C 264.236 126.050,264.146 136.434,264.094 156.276 " stroke="none" fill="#15bfd5" fill-rule="evenodd"></path><path id="path2" d="M266.263 116.842 C 264.387 117.959,264.400 117.688,264.400 156.173 L 264.400 192.372 265.641 193.786 L 266.883 195.200 276.606 195.200 L 286.329 195.200 287.370 193.962 L 288.412 192.724 288.306 155.182 C 288.221 125.048,288.098 117.537,287.681 117.120 C 286.991 116.430,267.382 116.175,266.263 116.842 " stroke="none" fill="#7ce4fc" fill-rule="evenodd"></path><path id="path3" d="M164.400 0.800 C 164.400 1.545,164.116 1.604,160.300 1.651 C 158.045 1.679,155.174 1.724,153.920 1.751 C 151.428 1.805,150.368 2.397,151.127 3.313 C 151.457 3.709,151.461 3.979,151.142 4.298 C 150.663 4.777,149.482 4.514,149.800 4.000 C 149.907 3.826,149.715 3.576,149.372 3.444 C 148.893 3.261,148.807 3.391,149.001 4.003 C 149.242 4.763,149.068 4.800,145.258 4.800 C 141.125 4.800,137.499 6.529,139.272 7.653 C 139.587 7.853,138.589 8.014,136.800 8.053 C 131.843 8.160,131.662 8.178,131.732 8.578 C 131.769 8.790,131.350 8.972,130.800 8.982 C 130.074 8.995,129.765 9.247,129.672 9.900 C 129.537 10.852,128.919 11.003,125.900 10.822 C 124.979 10.766,124.400 10.910,124.400 11.194 C 124.400 11.464,123.941 11.604,123.300 11.529 C 122.390 11.422,122.192 11.560,122.153 12.327 C 122.080 13.784,121.563 14.008,118.174 14.054 C 116.128 14.081,115.284 14.212,115.800 14.420 C 116.528 14.715,116.534 14.746,115.863 14.772 C 115.454 14.787,115.023 15.192,114.895 15.679 C 114.676 16.517,114.652 16.522,114.361 15.779 C 114.113 15.145,114.051 15.223,114.029 16.200 C 114.001 17.378,113.964 17.399,112.000 17.339 C 110.724 17.299,109.998 17.444,109.994 17.739 C 109.990 17.995,109.815 17.933,109.600 17.600 C 109.277 17.101,109.206 17.134,109.175 17.800 C 109.154 18.240,109.046 18.375,108.935 18.100 C 108.548 17.140,108.171 17.611,108.218 19.000 C 108.264 20.395,108.257 20.400,106.506 20.400 C 105.539 20.400,104.399 20.586,103.974 20.814 C 103.512 21.061,103.200 21.076,103.200 20.849 C 103.200 20.061,101.863 20.706,101.734 21.557 C 101.654 22.079,101.764 22.346,101.999 22.201 C 102.219 22.064,102.400 22.221,102.400 22.549 C 102.400 23.351,101.090 23.732,98.200 23.773 L 95.800 23.806 95.804 25.099 C 95.808 26.288,95.681 26.416,94.204 26.709 C 93.252 26.898,92.578 27.266,92.546 27.614 C 92.517 27.936,92.472 28.599,92.446 29.086 C 92.403 29.922,92.257 29.963,89.900 29.799 C 88.525 29.704,87.635 29.728,87.921 29.853 C 88.314 30.025,88.265 30.211,87.722 30.607 C 87.265 30.942,86.838 30.998,86.553 30.761 C 86.233 30.496,86.144 30.736,86.244 31.594 C 86.370 32.680,86.274 32.800,85.272 32.800 C 84.660 32.800,83.918 33.025,83.621 33.300 C 83.185 33.705,83.145 33.691,83.410 33.227 C 83.590 32.913,83.092 33.147,82.303 33.748 C 81.515 34.350,80.756 35.137,80.618 35.498 C 80.480 35.858,80.815 35.669,81.364 35.077 C 81.913 34.484,82.577 34.000,82.839 34.000 C 83.653 34.000,81.071 36.124,80.132 36.227 C 79.645 36.281,79.055 36.442,78.823 36.586 C 78.590 36.730,78.400 36.657,78.400 36.424 C 78.400 36.191,78.201 36.000,77.957 36.000 C 77.714 36.000,77.621 36.277,77.750 36.615 C 77.888 36.973,77.725 37.331,77.361 37.470 C 76.988 37.614,76.814 38.011,76.930 38.455 C 77.049 38.910,76.906 39.219,76.563 39.250 C 75.461 39.348,75.263 39.404,74.967 39.700 C 74.476 40.191,73.930 40.040,74.241 39.500 C 74.400 39.222,74.372 39.142,74.177 39.320 C 73.984 39.496,73.799 40.126,73.765 40.720 C 73.732 41.314,73.681 41.935,73.652 42.100 C 73.623 42.265,73.105 42.403,72.500 42.406 C 71.239 42.413,70.773 42.687,70.173 43.773 C 69.734 44.569,69.157 44.967,67.849 45.378 C 67.238 45.570,67.140 45.877,67.325 47.016 C 67.450 47.787,67.396 48.321,67.204 48.202 C 67.012 48.084,66.742 48.171,66.603 48.395 C 66.465 48.619,65.827 48.710,65.187 48.598 C 64.232 48.430,64.067 48.510,64.272 49.043 C 64.487 49.604,64.398 49.627,63.626 49.214 C 63.134 48.951,62.627 48.840,62.499 48.968 C 62.371 49.095,62.409 49.200,62.582 49.200 C 62.756 49.200,62.651 49.505,62.349 49.877 C 61.875 50.461,61.882 50.505,62.400 50.197 C 62.730 50.002,62.467 50.411,61.815 51.106 C 60.989 51.987,60.539 52.225,60.331 51.889 C 60.104 51.521,59.911 51.539,59.517 51.962 C 59.131 52.377,59.126 52.446,59.500 52.235 C 59.775 52.080,60.000 52.124,60.000 52.334 C 60.000 52.847,58.831 53.267,58.306 52.942 C 58.032 52.772,57.968 53.019,58.125 53.644 C 58.421 54.823,57.882 55.822,57.183 55.389 C 56.853 55.186,56.776 55.238,56.962 55.538 C 57.119 55.792,57.057 56.000,56.824 56.000 C 56.591 56.000,56.400 55.730,56.400 55.400 C 56.400 55.070,56.226 54.800,56.013 54.800 C 55.799 54.800,55.741 55.101,55.882 55.469 C 56.077 55.977,55.977 56.077,55.469 55.882 C 55.101 55.741,54.800 55.799,54.800 56.013 C 54.800 56.226,55.070 56.400,55.400 56.400 C 55.730 56.400,56.000 56.591,56.000 56.824 C 56.000 57.057,55.792 57.119,55.538 56.962 C 55.238 56.776,55.186 56.853,55.389 57.183 C 55.822 57.882,54.823 58.421,53.644 58.125 C 53.019 57.968,52.772 58.032,52.942 58.306 C 53.267 58.831,52.847 60.000,52.334 60.000 C 52.124 60.000,52.080 59.775,52.235 59.500 C 52.446 59.126,52.377 59.131,51.962 59.517 C 51.539 59.911,51.521 60.104,51.889 60.331 C 52.225 60.539,51.987 60.989,51.106 61.815 C 50.411 62.467,50.002 62.730,50.197 62.400 C 50.493 61.902,50.449 61.884,49.940 62.297 C 49.603 62.570,49.208 62.675,49.063 62.530 C 48.651 62.118,48.754 62.767,49.247 63.687 C 49.624 64.392,49.593 64.483,49.043 64.272 C 48.510 64.067,48.430 64.232,48.598 65.187 C 48.710 65.827,48.619 66.465,48.395 66.603 C 48.171 66.742,48.084 67.012,48.202 67.204 C 48.321 67.396,47.787 67.450,47.016 67.325 C 45.877 67.140,45.570 67.238,45.378 67.849 C 44.967 69.157,44.569 69.734,43.773 70.173 C 42.687 70.773,42.413 71.239,42.406 72.500 C 42.403 73.105,42.265 73.623,42.100 73.652 C 41.935 73.681,41.314 73.732,40.720 73.765 C 40.126 73.799,39.496 73.984,39.320 74.177 C 39.142 74.372,39.222 74.400,39.500 74.241 C 40.040 73.930,40.191 74.476,39.700 74.967 C 39.401 75.265,39.345 75.467,39.250 76.587 C 39.218 76.958,38.960 77.083,38.550 76.926 C 38.163 76.777,37.755 76.937,37.540 77.322 C 37.341 77.676,36.914 77.865,36.589 77.741 C 36.265 77.616,36.000 77.714,36.000 77.957 C 36.000 78.201,36.191 78.400,36.424 78.400 C 36.657 78.400,36.730 78.590,36.586 78.823 C 36.442 79.055,36.281 79.645,36.227 80.132 C 36.124 81.071,34.000 83.653,34.000 82.839 C 34.000 82.577,34.484 81.913,35.077 81.364 C 35.669 80.815,35.858 80.480,35.498 80.618 C 35.137 80.756,34.350 81.515,33.748 82.303 C 33.147 83.092,32.913 83.590,33.227 83.410 C 33.691 83.145,33.705 83.185,33.300 83.621 C 33.025 83.918,32.800 84.660,32.800 85.272 C 32.800 86.274,32.680 86.370,31.594 86.244 C 30.736 86.144,30.496 86.233,30.761 86.553 C 30.998 86.838,30.942 87.265,30.607 87.722 C 30.211 88.265,30.025 88.314,29.853 87.921 C 29.728 87.635,29.704 88.525,29.799 89.900 C 29.963 92.257,29.922 92.403,29.086 92.446 C 28.599 92.472,27.936 92.517,27.614 92.546 C 27.266 92.578,26.898 93.252,26.709 94.204 C 26.416 95.681,26.288 95.808,25.099 95.804 L 23.806 95.800 23.773 98.200 C 23.732 101.090,23.351 102.400,22.549 102.400 C 22.221 102.400,22.064 102.219,22.201 101.999 C 22.346 101.764,22.079 101.654,21.557 101.734 C 20.706 101.863,20.061 103.200,20.849 103.200 C 21.076 103.200,21.061 103.512,20.814 103.974 C 20.586 104.399,20.400 105.539,20.400 106.506 C 20.400 108.257,20.395 108.264,19.000 108.218 C 17.611 108.171,17.140 108.548,18.100 108.935 C 18.375 109.046,18.240 109.154,17.800 109.175 C 17.134 109.206,17.101 109.277,17.600 109.600 C 17.933 109.815,17.995 109.990,17.739 109.994 C 17.444 109.998,17.299 110.724,17.339 112.000 C 17.399 113.964,17.378 114.001,16.200 114.029 C 15.168 114.052,15.112 114.104,15.800 114.400 C 16.531 114.714,16.536 114.746,15.863 114.772 C 15.454 114.787,15.023 115.192,14.895 115.679 C 14.677 116.514,14.652 116.519,14.381 115.779 C 14.222 115.344,14.078 116.404,14.054 118.174 C 14.008 121.563,13.784 122.080,12.327 122.153 C 11.560 122.192,11.422 122.390,11.529 123.300 C 11.604 123.941,11.464 124.400,11.194 124.400 C 10.910 124.400,10.766 124.979,10.822 125.900 C 11.003 128.919,10.852 129.537,9.900 129.672 C 9.247 129.765,8.995 130.074,8.982 130.800 C 8.972 131.350,8.790 131.769,8.578 131.732 C 8.178 131.662,8.160 131.843,8.053 136.800 C 8.014 138.589,7.853 139.587,7.653 139.272 C 6.529 137.499,4.800 141.125,4.800 145.258 C 4.800 149.068,4.763 149.242,4.003 149.001 C 3.391 148.807,3.261 148.893,3.444 149.372 C 3.576 149.715,3.826 149.907,4.000 149.800 C 4.548 149.461,4.777 150.721,4.247 151.161 C 3.890 151.457,3.602 151.442,3.270 151.110 C 2.446 150.286,1.804 151.473,1.751 153.920 C 1.724 155.174,1.679 158.045,1.651 160.300 C 1.604 164.116,1.545 164.400,0.800 164.400 C 0.006 164.400,0.000 164.667,0.000 199.400 C 0.000 234.133,0.006 234.400,0.800 234.400 C 1.529 234.400,1.602 234.674,1.623 237.500 C 1.683 245.701,1.783 246.999,2.392 247.530 C 2.919 247.989,2.920 248.021,2.400 247.771 C 1.903 247.532,1.889 247.578,2.320 248.041 C 2.606 248.349,3.011 248.623,3.220 248.650 C 3.429 248.678,3.712 248.722,3.849 248.750 C 3.986 248.778,3.851 249.105,3.549 249.477 C 3.176 249.937,3.160 250.057,3.500 249.853 C 3.818 249.662,4.000 249.789,4.000 250.200 C 4.000 250.556,4.157 250.750,4.349 250.631 C 4.541 250.513,4.731 252.143,4.770 254.254 C 4.817 256.760,5.036 258.388,5.401 258.946 C 5.709 259.416,6.015 259.980,6.080 260.200 C 6.146 260.420,6.425 260.575,6.700 260.544 C 6.975 260.514,7.200 260.660,7.200 260.868 C 7.200 261.077,7.380 261.136,7.600 261.000 C 7.936 260.793,8.250 265.281,8.091 268.000 C 8.071 268.329,8.317 268.746,8.636 268.924 C 8.956 269.103,9.114 269.416,8.988 269.620 C 8.860 269.827,9.062 269.874,9.445 269.727 C 9.937 269.539,10.042 269.609,9.816 269.975 C 9.588 270.344,9.709 270.419,10.254 270.246 C 10.950 270.026,11.000 270.224,10.905 272.826 C 10.836 274.727,10.941 275.560,11.226 275.384 C 11.499 275.215,11.621 275.667,11.570 276.661 C 11.446 279.099,11.531 279.525,12.000 278.800 C 12.323 278.301,12.394 278.335,12.422 279.000 L 12.456 279.800 12.800 279.000 C 13.032 278.461,13.155 278.396,13.178 278.800 C 13.208 279.333,13.255 279.333,13.600 278.800 C 13.981 278.210,14.201 280.877,14.008 283.745 C 13.963 284.410,14.095 284.788,14.323 284.647 C 14.539 284.514,14.827 284.692,14.961 285.044 C 15.096 285.395,15.447 285.591,15.740 285.479 C 16.667 285.123,17.103 285.741,17.377 287.800 C 17.877 291.562,18.155 291.955,20.100 291.647 C 20.391 291.601,20.439 291.988,20.570 295.445 C 20.638 297.239,21.568 298.511,22.671 298.320 C 23.470 298.181,24.168 301.041,23.780 302.862 C 23.543 303.969,24.139 304.746,24.624 303.962 C 24.777 303.714,24.654 303.353,24.351 303.161 C 24.032 302.959,23.990 302.810,24.251 302.806 C 24.499 302.803,25.003 303.205,25.370 303.700 C 25.737 304.195,25.911 304.347,25.757 304.038 C 25.585 303.694,25.640 303.577,25.898 303.737 C 26.130 303.880,26.537 304.904,26.803 306.012 C 27.155 307.479,27.414 307.920,27.756 307.636 C 28.034 307.406,28.460 307.390,28.794 307.596 C 29.106 307.789,29.532 307.842,29.739 307.714 C 29.972 307.570,30.008 308.440,29.834 309.979 C 29.673 311.405,29.703 312.383,29.905 312.258 C 30.100 312.138,30.246 312.413,30.230 312.869 C 30.207 313.493,30.482 313.730,31.344 313.826 C 32.741 313.983,32.691 313.931,32.861 315.400 C 33.003 316.630,33.607 317.632,34.047 317.367 C 34.810 316.907,36.084 319.330,36.105 321.281 C 36.112 321.875,36.226 322.332,36.358 322.296 C 36.491 322.260,37.009 322.457,37.508 322.734 C 38.008 323.010,38.557 323.150,38.729 323.044 C 38.900 322.938,39.276 323.648,39.563 324.623 C 39.851 325.597,40.249 326.294,40.447 326.171 C 41.199 325.706,42.400 326.458,42.400 327.394 C 42.400 328.708,42.797 329.600,43.381 329.600 C 44.078 329.600,45.200 330.929,45.200 331.755 C 45.200 332.136,45.380 332.336,45.600 332.200 C 45.820 332.064,46.000 332.143,46.000 332.376 C 46.000 332.609,46.540 332.800,47.200 332.800 C 48.417 332.800,48.479 332.906,48.536 335.057 C 48.550 335.595,48.755 335.839,49.084 335.712 C 49.434 335.578,49.527 335.725,49.362 336.155 C 49.223 336.516,49.315 336.800,49.571 336.800 C 49.902 336.800,49.912 337.018,49.605 337.591 C 49.145 338.450,49.962 338.370,51.165 337.438 C 51.646 337.066,51.655 337.142,51.226 337.948 C 50.905 338.550,50.882 338.797,51.163 338.623 C 51.406 338.472,51.719 338.644,51.857 339.005 C 51.996 339.366,52.535 339.823,53.055 340.021 C 53.575 340.218,54.000 340.665,54.000 341.014 C 54.000 341.391,53.813 341.532,53.538 341.362 C 53.250 341.184,53.185 341.252,53.366 341.545 C 53.525 341.802,53.821 341.911,54.022 341.786 C 54.224 341.661,54.780 341.923,55.258 342.368 C 56.027 343.085,56.051 343.206,55.463 343.431 C 54.388 343.844,54.700 344.193,56.244 344.303 C 58.197 344.443,58.488 344.691,58.206 345.974 C 57.864 347.528,59.021 348.520,59.571 347.146 C 59.948 346.204,59.949 346.205,59.975 347.300 C 59.989 347.905,60.191 348.400,60.424 348.400 C 60.657 348.400,60.728 348.207,60.582 347.970 C 60.435 347.733,60.682 347.769,61.132 348.051 C 61.581 348.331,61.859 348.704,61.751 348.880 C 61.642 349.056,61.788 349.213,62.076 349.228 C 62.364 349.244,62.240 349.411,61.800 349.600 C 61.360 349.789,61.236 349.956,61.524 349.972 C 61.812 349.987,61.955 350.150,61.841 350.333 C 61.728 350.517,61.897 350.667,62.218 350.667 C 62.538 350.667,62.800 350.477,62.800 350.244 C 62.800 350.012,63.093 350.240,63.451 350.751 C 63.959 351.476,64.349 351.630,65.235 351.453 C 66.890 351.122,67.966 352.481,67.647 354.500 C 67.621 354.665,67.932 354.800,68.338 354.800 C 69.240 354.800,70.400 356.013,70.400 356.955 C 70.400 357.336,70.580 357.536,70.800 357.400 C 71.020 357.264,71.200 357.332,71.200 357.551 C 71.200 357.770,71.785 358.006,72.500 358.075 C 73.215 358.144,73.824 358.380,73.854 358.600 C 74.027 359.891,74.547 360.706,75.136 360.611 C 76.143 360.448,77.143 361.108,77.032 361.862 C 76.978 362.231,77.263 362.863,77.667 363.267 C 78.474 364.074,79.000 364.247,78.580 363.567 C 78.432 363.329,78.849 363.412,79.505 363.751 C 80.162 364.090,80.780 364.287,80.878 364.188 C 80.977 364.089,81.585 364.574,82.229 365.266 C 82.873 365.958,83.130 366.379,82.800 366.203 C 82.333 365.954,82.303 365.994,82.664 366.385 C 83.064 366.819,84.273 367.078,86.349 367.174 C 86.766 367.194,86.789 367.331,86.447 367.743 C 85.716 368.624,87.404 370.533,88.428 369.985 C 88.853 369.758,89.200 369.721,89.200 369.904 C 89.200 370.087,89.868 370.281,90.685 370.336 C 92.459 370.456,92.407 370.414,92.575 371.854 C 92.648 372.484,92.729 373.135,92.754 373.300 C 92.779 373.465,93.477 373.600,94.304 373.600 C 95.726 373.600,95.808 373.669,95.804 374.861 L 95.800 376.121 98.581 376.275 C 101.713 376.448,101.567 376.390,101.791 377.553 C 102.067 378.988,102.888 379.444,105.400 379.558 C 108.216 379.686,108.029 379.570,108.160 381.262 C 108.273 382.712,108.028 382.625,112.300 382.750 C 113.844 382.795,114.000 382.894,114.000 383.824 C 114.000 384.387,114.161 384.748,114.358 384.626 C 114.555 384.504,114.815 384.663,114.937 384.979 C 115.058 385.295,115.482 385.559,115.879 385.566 C 116.275 385.573,117.320 385.662,118.200 385.765 C 119.080 385.868,120.340 385.984,121.000 386.023 C 121.703 386.064,121.910 386.169,121.500 386.276 C 120.481 386.542,121.237 388.000,122.395 388.000 C 122.644 388.000,122.746 388.163,122.623 388.363 C 122.500 388.562,122.787 388.624,123.262 388.500 C 123.774 388.366,124.027 388.433,123.883 388.666 C 123.733 388.908,124.728 389.046,126.495 389.029 L 129.348 389.000 129.676 390.262 C 129.942 391.288,130.161 391.483,130.843 391.305 C 131.305 391.184,131.820 391.309,131.990 391.584 C 132.217 391.951,132.507 391.971,133.088 391.660 C 133.660 391.354,134.018 391.370,134.388 391.719 C 134.797 392.105,134.819 392.042,134.500 391.400 C 134.281 390.960,134.162 390.236,134.235 389.790 C 134.329 389.215,134.033 388.833,133.211 388.469 C 132.439 388.127,131.966 387.557,131.790 386.755 C 131.574 385.772,126.165 379.772,121.552 375.400 C 121.320 375.180,119.884 373.740,118.360 372.200 C 116.837 370.660,115.435 369.243,115.244 369.052 C 114.791 368.598,106.602 360.409,106.148 359.956 C 105.957 359.765,104.540 358.363,103.000 356.840 C 101.460 355.316,99.996 353.853,99.748 353.587 C 99.239 353.045,97.014 350.813,96.371 350.200 C 96.140 349.980,94.795 348.630,93.383 347.200 C 91.970 345.770,90.652 344.444,90.454 344.253 C 90.256 344.063,88.113 341.927,85.693 339.507 C 78.464 332.277,77.541 331.395,74.503 328.810 C 71.019 325.845,71.205 327.730,71.202 295.370 L 71.200 266.939 72.106 266.088 C 73.005 265.243,73.192 265.236,96.206 265.097 C 108.963 265.020,119.807 264.810,120.303 264.631 L 121.207 264.305 119.903 262.748 C 116.663 258.877,87.356 229.892,85.966 229.183 C 84.220 228.292,83.838 227.287,83.443 222.558 L 83.205 219.716 78.650 215.198 C 76.145 212.712,73.688 210.461,73.191 210.195 C 71.147 209.101,71.229 211.220,71.214 159.370 L 71.200 110.939 72.126 110.070 L 73.052 109.200 131.826 109.152 C 197.584 109.099,243.846 108.725,244.900 108.238 C 245.540 107.942,245.600 107.033,245.600 97.583 C 245.600 86.556,245.745 85.558,247.483 84.662 C 249.151 83.802,332.649 83.278,333.696 84.122 C 334.079 84.430,334.826 85.664,335.357 86.864 C 336.368 89.151,338.187 91.600,338.874 91.600 C 339.096 91.600,340.115 92.545,341.137 93.700 C 342.160 94.855,344.167 96.913,345.598 98.274 C 347.029 99.635,348.470 101.036,348.800 101.389 C 349.130 101.742,351.290 103.905,353.600 106.196 C 355.910 108.488,357.923 110.506,358.073 110.681 C 358.409 111.073,363.778 116.447,364.386 117.000 C 364.793 117.370,372.310 124.890,373.900 126.517 C 374.285 126.911,376.400 129.014,378.600 131.190 C 380.800 133.367,382.780 135.356,383.000 135.611 C 385.019 137.954,388.944 141.600,389.448 141.600 C 389.795 141.600,390.556 142.110,391.140 142.733 C 391.810 143.449,392.788 143.959,393.800 144.121 C 394.804 144.282,395.186 144.244,394.826 144.019 C 394.436 143.776,394.374 143.491,394.632 143.130 C 394.841 142.839,394.986 142.330,394.952 142.000 C 394.919 141.670,394.872 141.001,394.846 140.513 C 394.816 139.935,394.608 139.699,394.252 139.836 C 393.950 139.951,393.431 139.774,393.099 139.442 C 392.767 139.110,392.384 138.950,392.248 139.086 C 392.046 139.287,391.878 136.074,391.893 132.300 C 391.895 131.915,391.639 131.600,391.324 131.600 C 391.010 131.600,390.857 131.431,390.985 131.225 C 391.112 131.018,390.898 130.664,390.508 130.437 C 389.944 130.108,389.922 130.014,390.400 129.972 C 390.730 129.944,390.551 129.795,390.002 129.643 C 389.055 129.379,389.005 129.221,389.026 126.506 C 389.039 124.763,388.896 123.740,388.661 123.886 C 388.434 124.026,388.368 123.767,388.500 123.262 C 388.624 122.787,388.562 122.500,388.363 122.623 C 388.163 122.746,388.000 122.644,388.000 122.395 C 388.000 121.237,386.542 120.481,386.276 121.500 C 386.169 121.910,386.064 121.703,386.023 121.000 C 385.984 120.340,385.868 119.080,385.765 118.200 C 385.662 117.320,385.573 116.275,385.566 115.879 C 385.559 115.482,385.295 115.058,384.979 114.937 C 384.663 114.815,384.504 114.555,384.626 114.358 C 384.748 114.161,384.387 114.000,383.824 114.000 C 382.894 114.000,382.795 113.844,382.750 112.300 C 382.625 108.028,382.712 108.273,381.262 108.160 C 379.570 108.029,379.686 108.216,379.558 105.400 C 379.444 102.888,378.988 102.067,377.553 101.791 C 376.390 101.567,376.448 101.713,376.275 98.581 L 376.121 95.800 374.861 95.804 C 373.669 95.808,373.600 95.726,373.600 94.304 C 373.600 93.477,373.465 92.779,373.300 92.754 C 373.135 92.729,372.484 92.648,371.854 92.575 C 370.414 92.407,370.456 92.459,370.336 90.685 C 370.281 89.868,370.087 89.200,369.904 89.200 C 369.721 89.200,369.758 88.853,369.985 88.428 C 370.533 87.404,368.624 85.716,367.743 86.447 C 367.331 86.789,367.194 86.766,367.174 86.349 C 367.078 84.273,366.819 83.064,366.385 82.664 C 365.994 82.303,365.954 82.333,366.203 82.800 C 366.379 83.130,365.958 82.873,365.266 82.229 C 364.574 81.585,364.089 80.977,364.188 80.878 C 364.287 80.780,364.090 80.162,363.751 79.505 C 363.412 78.849,363.329 78.432,363.567 78.580 C 364.247 79.000,364.074 78.474,363.267 77.667 C 362.863 77.263,362.231 76.978,361.862 77.032 C 361.108 77.143,360.448 76.143,360.611 75.136 C 360.706 74.547,359.891 74.027,358.600 73.854 C 358.380 73.824,358.144 73.215,358.075 72.500 C 358.006 71.785,357.770 71.200,357.551 71.200 C 357.332 71.200,357.264 71.020,357.400 70.800 C 357.536 70.580,357.304 70.400,356.886 70.400 C 355.974 70.400,354.800 69.201,354.800 68.269 C 354.800 67.901,354.665 67.621,354.500 67.647 C 352.481 67.966,351.122 66.890,351.453 65.235 C 351.630 64.349,351.476 63.959,350.751 63.451 C 350.240 63.093,350.012 62.800,350.244 62.800 C 350.477 62.800,350.667 62.538,350.667 62.218 C 350.667 61.897,350.517 61.728,350.333 61.841 C 350.150 61.955,349.987 61.812,349.972 61.524 C 349.956 61.236,349.789 61.360,349.600 61.800 C 349.411 62.240,349.244 62.364,349.228 62.076 C 349.213 61.788,349.056 61.642,348.880 61.751 C 348.704 61.859,348.331 61.581,348.051 61.132 C 347.769 60.682,347.733 60.435,347.970 60.582 C 348.207 60.728,348.400 60.657,348.400 60.424 C 348.400 60.191,347.905 59.989,347.300 59.975 C 346.205 59.949,346.204 59.948,347.146 59.571 C 348.520 59.021,347.528 57.864,345.974 58.206 C 344.691 58.488,344.443 58.197,344.303 56.244 C 344.193 54.700,343.844 54.388,343.431 55.463 C 343.206 56.051,343.085 56.027,342.368 55.258 C 341.923 54.780,341.661 54.224,341.786 54.022 C 341.911 53.821,341.802 53.525,341.545 53.366 C 341.252 53.185,341.184 53.250,341.362 53.538 C 341.532 53.813,341.391 54.000,341.014 54.000 C 340.665 54.000,340.218 53.575,340.021 53.055 C 339.823 52.535,339.366 51.996,339.005 51.857 C 338.644 51.719,338.472 51.406,338.623 51.163 C 338.797 50.882,338.550 50.905,337.948 51.226 C 337.142 51.655,337.066 51.646,337.438 51.165 C 338.370 49.962,338.450 49.145,337.591 49.605 C 337.018 49.912,336.800 49.902,336.800 49.571 C 336.800 49.315,336.516 49.223,336.155 49.362 C 335.725 49.527,335.578 49.434,335.712 49.084 C 335.839 48.755,335.595 48.550,335.057 48.536 C 332.906 48.479,332.800 48.417,332.800 47.200 C 332.800 46.540,332.609 46.000,332.376 46.000 C 332.143 46.000,332.064 45.820,332.200 45.600 C 332.336 45.380,332.104 45.200,331.686 45.200 C 330.885 45.200,329.600 44.036,329.600 43.311 C 329.600 42.791,328.654 42.400,327.394 42.400 C 326.458 42.400,325.706 41.199,326.171 40.447 C 326.294 40.249,325.597 39.851,324.623 39.563 C 323.648 39.276,322.938 38.900,323.044 38.729 C 323.150 38.557,323.010 38.008,322.734 37.508 C 322.457 37.009,322.260 36.491,322.296 36.358 C 322.332 36.226,321.875 36.112,321.281 36.105 C 319.330 36.084,316.907 34.810,317.367 34.047 C 317.632 33.607,316.630 33.003,315.400 32.861 C 313.931 32.691,313.983 32.741,313.826 31.344 C 313.730 30.482,313.493 30.207,312.869 30.230 C 312.413 30.246,312.138 30.100,312.258 29.905 C 312.383 29.703,311.405 29.673,309.979 29.834 C 308.440 30.008,307.570 29.972,307.714 29.739 C 307.842 29.532,307.789 29.106,307.596 28.794 C 307.390 28.460,307.406 28.034,307.636 27.756 C 307.920 27.414,307.479 27.155,306.012 26.803 C 304.904 26.537,303.880 26.130,303.737 25.898 C 303.577 25.640,303.694 25.585,304.038 25.757 C 304.347 25.911,304.195 25.737,303.700 25.370 C 303.205 25.003,302.803 24.499,302.806 24.251 C 302.810 23.990,302.959 24.032,303.161 24.351 C 303.353 24.654,303.714 24.777,303.962 24.624 C 304.746 24.139,303.969 23.543,302.862 23.780 C 301.041 24.168,298.181 23.470,298.320 22.671 C 298.511 21.568,297.239 20.638,295.445 20.570 C 291.988 20.439,291.601 20.391,291.647 20.100 C 291.955 18.155,291.562 17.877,287.800 17.377 C 285.741 17.103,285.123 16.667,285.479 15.740 C 285.591 15.447,285.395 15.096,285.044 14.961 C 284.692 14.827,284.514 14.539,284.647 14.323 C 284.788 14.095,284.410 13.963,283.745 14.008 C 280.877 14.201,278.210 13.981,278.800 13.600 C 279.333 13.255,279.333 13.208,278.800 13.178 C 278.396 13.155,278.461 13.032,279.000 12.800 L 279.800 12.456 279.000 12.422 C 278.335 12.394,278.301 12.323,278.800 12.000 C 279.525 11.531,279.099 11.446,276.661 11.570 C 275.667 11.621,275.215 11.499,275.384 11.226 C 275.560 10.941,274.727 10.836,272.826 10.905 C 270.224 11.000,270.026 10.950,270.246 10.254 C 270.419 9.709,270.344 9.588,269.975 9.816 C 269.609 10.042,269.539 9.937,269.727 9.445 C 269.874 9.062,269.827 8.860,269.620 8.988 C 269.416 9.114,269.103 8.956,268.924 8.636 C 268.746 8.317,268.329 8.071,268.000 8.091 C 265.281 8.250,260.793 7.936,261.000 7.600 C 261.136 7.380,261.077 7.200,260.868 7.200 C 260.660 7.200,260.514 6.975,260.544 6.700 C 260.575 6.425,260.502 6.200,260.382 6.200 C 260.263 6.200,259.698 5.894,259.128 5.521 C 258.360 5.017,257.098 4.823,254.254 4.770 C 252.143 4.731,250.513 4.541,250.631 4.349 C 250.750 4.157,250.556 4.000,250.200 4.000 C 249.789 4.000,249.662 3.818,249.853 3.500 C 250.057 3.160,249.937 3.176,249.477 3.549 C 249.105 3.851,248.778 3.986,248.750 3.849 C 248.722 3.712,248.678 3.429,248.650 3.220 C 248.623 3.011,248.349 2.606,248.041 2.320 C 247.578 1.889,247.532 1.903,247.771 2.400 C 248.021 2.920,247.989 2.919,247.530 2.392 C 246.999 1.783,245.701 1.683,237.500 1.623 C 234.674 1.602,234.400 1.529,234.400 0.800 C 234.400 0.006,234.133 0.000,199.400 0.000 C 164.667 0.000,164.400 0.006,164.400 0.800 M96.800 122.368 C 94.243 122.915,90.046 126.168,88.094 129.116 C 85.848 132.507,87.152 139.963,90.600 143.444 C 95.066 147.954,102.080 148.753,106.299 145.232 C 108.958 143.013,109.252 142.645,110.637 139.801 C 113.056 134.836,111.097 126.998,106.901 124.852 C 106.075 124.430,104.680 123.720,103.800 123.274 C 101.956 122.340,98.827 121.935,96.800 122.368 M395.294 152.100 C 395.066 154.970,395.166 156.532,395.594 156.796 C 395.980 157.035,395.969 157.146,395.545 157.298 C 395.245 157.404,395.546 157.475,396.214 157.454 C 397.074 157.427,397.429 157.218,397.429 156.737 C 397.429 156.364,397.242 156.149,397.014 156.259 C 396.786 156.369,396.947 156.178,397.371 155.834 C 397.795 155.490,398.026 155.093,397.885 154.952 C 397.744 154.810,397.820 154.337,398.054 153.899 C 398.361 153.325,398.357 153.179,398.040 153.375 C 397.483 153.720,397.461 152.699,398.013 152.147 C 398.298 151.862,398.235 151.733,397.813 151.733 C 397.476 151.733,397.200 151.853,397.200 152.000 C 397.200 152.147,396.930 152.267,396.600 152.267 C 396.270 152.267,396.000 152.117,396.000 151.933 C 396.000 151.395,395.337 151.552,395.294 152.100 M398.400 166.800 C 398.400 167.333,398.667 167.600,399.200 167.600 C 399.733 167.600,400.000 167.333,400.000 166.800 C 400.000 166.267,399.733 166.000,399.200 166.000 C 398.667 166.000,398.400 166.267,398.400 166.800 M398.400 230.400 C 398.400 231.733,398.533 232.000,399.200 232.000 C 399.867 232.000,400.000 231.733,400.000 230.400 C 400.000 229.067,399.867 228.800,399.200 228.800 C 398.533 228.800,398.400 229.067,398.400 230.400 M395.254 247.900 C 395.191 249.407,395.339 249.474,396.447 248.442 C 397.047 247.883,397.132 247.605,396.768 247.380 C 396.470 247.196,396.379 247.242,396.536 247.496 C 396.679 247.727,396.538 248.015,396.223 248.136 C 395.855 248.277,395.589 248.041,395.479 247.478 C 395.361 246.870,395.292 246.999,395.254 247.900 M392.222 258.254 C 392.038 258.988,392.170 259.455,392.682 259.875 C 393.372 260.443,393.372 260.457,392.679 260.237 C 392.247 260.100,392.059 260.172,392.209 260.415 C 392.678 261.174,394.374 260.463,394.394 259.500 C 394.397 259.335,393.939 259.200,393.376 259.200 C 392.785 259.200,392.459 259.028,392.604 258.793 C 392.742 258.570,393.023 258.491,393.228 258.617 C 393.796 258.968,393.671 258.414,393.040 257.783 C 392.561 257.304,392.444 257.371,392.222 258.254 M389.388 267.122 C 389.175 267.275,388.943 267.670,388.873 268.000 C 388.772 268.481,388.886 268.463,389.450 267.910 C 390.158 267.214,390.110 266.605,389.388 267.122 M390.282 267.868 C 389.995 268.331,390.663 269.470,391.015 269.118 C 391.157 268.976,391.102 268.553,390.892 268.179 C 390.682 267.804,390.408 267.664,390.282 267.868 M383.490 282.698 C 382.985 282.815,382.821 283.162,382.921 283.908 C 383.102 285.260,383.672 285.425,384.602 284.397 C 385.467 283.442,384.785 282.399,383.490 282.698 M384.414 284.183 C 384.132 284.522,383.716 284.800,383.489 284.800 C 383.262 284.800,383.374 284.470,383.739 284.068 C 384.103 283.665,384.339 283.237,384.263 283.118 C 384.187 282.998,384.305 283.050,384.526 283.233 C 384.788 283.451,384.750 283.779,384.414 284.183 M367.200 311.249 C 367.200 311.496,367.555 311.601,368.000 311.484 C 369.080 311.202,369.015 311.764,367.900 312.351 C 367.220 312.709,367.195 312.761,367.800 312.565 C 368.240 312.422,368.825 312.296,369.100 312.286 C 369.628 312.266,369.815 311.221,369.300 311.170 C 369.135 311.154,368.595 311.065,368.100 310.973 C 367.605 310.881,367.200 311.005,367.200 311.249 M345.735 339.130 C 345.284 339.424,345.170 340.800,345.597 340.800 C 345.742 340.800,346.248 340.388,346.721 339.884 C 347.600 338.948,346.871 338.390,345.735 339.130 M344.631 341.550 C 344.512 341.743,343.954 341.900,343.391 341.900 C 342.138 341.900,341.970 342.053,341.908 343.255 C 341.881 343.775,341.665 344.470,341.429 344.800 C 341.057 345.321,341.092 345.327,341.700 344.851 C 342.293 344.386,342.503 344.386,343.077 344.851 C 343.659 345.324,343.704 345.318,343.396 344.807 C 342.810 343.836,342.900 342.941,343.579 342.991 C 343.928 343.017,344.481 343.199,344.807 343.396 C 345.318 343.704,345.324 343.659,344.851 343.077 C 344.411 342.534,344.401 342.281,344.800 341.800 C 345.074 341.470,345.197 341.200,345.073 341.200 C 344.949 341.200,344.750 341.358,344.631 341.550 M339.149 345.525 C 339.121 345.676,339.055 346.214,339.003 346.719 L 338.907 347.639 339.854 346.750 C 340.374 346.261,340.800 345.750,340.800 345.615 C 340.800 345.274,339.212 345.187,339.149 345.525 M310.973 368.100 C 311.065 368.595,311.154 369.135,311.170 369.300 C 311.221 369.815,312.266 369.628,312.286 369.100 C 312.296 368.825,312.422 368.240,312.565 367.800 C 312.761 367.195,312.709 367.220,312.351 367.900 C 311.764 369.015,311.202 369.080,311.484 368.000 C 311.601 367.555,311.496 367.200,311.249 367.200 C 311.005 367.200,310.881 367.605,310.973 368.100 M282.690 383.578 C 282.361 384.837,283.442 385.467,284.417 384.584 C 285.423 383.675,285.253 383.101,283.925 382.923 C 283.169 382.822,282.842 382.995,282.690 383.578 M284.279 384.292 C 283.715 384.856,283.524 384.878,283.103 384.424 C 282.812 384.111,282.792 383.990,283.055 384.137 C 283.305 384.277,283.735 384.119,284.012 383.786 C 284.288 383.453,284.613 383.279,284.733 383.400 C 284.854 383.520,284.649 383.922,284.279 384.292 M267.030 389.467 C 266.917 389.760,266.977 390.000,267.164 390.000 C 267.350 390.000,267.701 389.760,267.945 389.467 C 268.279 389.064,268.246 388.933,267.811 388.933 C 267.494 388.933,267.142 389.173,267.030 389.467 M267.789 390.417 C 267.659 390.628,267.639 390.800,267.744 390.800 C 267.849 390.800,268.219 390.909,268.567 391.043 C 268.915 391.176,269.200 391.106,269.200 390.886 C 269.200 390.326,268.076 389.953,267.789 390.417 M140.300 391.890 C 139.915 391.983,139.600 392.236,139.600 392.453 C 139.600 392.670,139.422 392.737,139.205 392.603 C 138.978 392.463,138.911 392.623,139.046 392.977 C 139.177 393.317,139.445 393.496,139.642 393.374 C 139.994 393.156,140.129 393.618,140.059 394.800 C 140.035 395.206,140.095 395.238,140.246 394.898 C 140.368 394.621,140.633 394.497,140.834 394.621 C 141.035 394.745,141.203 394.612,141.206 394.324 C 141.211 393.938,141.310 393.955,141.585 394.390 C 142.058 395.138,143.665 395.172,144.233 394.447 C 144.598 393.982,144.838 394.006,145.746 394.601 C 146.339 394.990,146.923 395.210,147.043 395.091 C 147.162 394.971,146.874 394.750,146.401 394.600 C 145.578 394.339,145.571 394.295,146.241 393.554 C 146.678 393.072,146.800 392.640,146.565 392.405 C 146.160 392.000,141.449 391.612,140.300 391.890 M257.901 392.276 C 257.295 392.434,257.278 392.535,257.772 393.029 C 258.412 393.669,258.971 393.800,258.617 393.228 C 258.491 393.023,258.570 392.742,258.793 392.604 C 259.028 392.459,259.200 392.785,259.200 393.376 C 259.200 393.939,259.335 394.397,259.500 394.394 C 260.463 394.374,261.174 392.678,260.415 392.209 C 260.172 392.059,260.100 392.247,260.237 392.679 C 260.454 393.363,260.436 393.364,259.889 392.700 C 259.302 391.988,259.136 391.953,257.901 392.276 M151.639 395.648 C 151.017 396.315,150.831 396.390,151.018 395.900 C 151.186 395.460,151.097 395.200,150.776 395.200 C 150.496 395.200,150.385 395.318,150.530 395.463 C 150.675 395.608,150.606 395.952,150.377 396.228 C 150.109 396.551,150.100 396.815,150.353 396.971 C 150.568 397.104,150.858 397.030,150.996 396.807 C 151.373 396.197,152.000 396.317,152.000 397.000 C 152.000 397.377,152.380 397.600,153.024 397.600 C 153.587 397.600,153.964 397.735,153.861 397.900 C 153.572 398.366,156.995 398.138,157.949 397.627 C 158.975 397.078,159.079 396.617,158.100 396.958 C 157.451 397.184,157.449 397.164,158.071 396.678 C 159.198 395.798,158.303 395.234,155.346 394.959 C 152.721 394.715,152.466 394.762,151.639 395.648 M247.478 395.479 C 248.041 395.589,248.277 395.855,248.136 396.223 C 248.015 396.538,247.727 396.679,247.496 396.536 C 247.242 396.379,247.196 396.470,247.380 396.768 C 247.605 397.132,247.883 397.047,248.442 396.447 C 249.474 395.339,249.407 395.191,247.900 395.254 C 246.999 395.292,246.870 395.361,247.478 395.479 M170.400 399.200 C 170.400 399.962,170.667 400.000,176.000 400.000 C 181.333 400.000,181.600 399.962,181.600 399.200 C 181.600 398.438,181.333 398.400,176.000 398.400 C 170.667 398.400,170.400 398.438,170.400 399.200 M228.800 399.200 C 228.800 399.867,229.067 400.000,230.400 400.000 C 231.733 400.000,232.000 399.867,232.000 399.200 C 232.000 398.533,231.733 398.400,230.400 398.400 C 229.067 398.400,228.800 398.533,228.800 399.200 " stroke="none" fill="#fb8b04" fill-rule="evenodd"></path><path id="path4" d="M234.400 0.800 C 234.400 1.333,234.667 1.600,235.200 1.600 C 235.733 1.600,236.000 1.333,236.000 0.800 C 236.000 0.267,235.733 0.000,235.200 0.000 C 234.667 0.000,234.400 0.267,234.400 0.800 M149.700 2.012 C 148.668 2.427,148.523 3.119,149.398 3.454 C 149.726 3.581,149.907 3.826,149.800 4.000 C 149.693 4.174,149.860 4.414,150.173 4.534 C 150.884 4.807,151.832 3.791,151.219 3.412 C 150.989 3.269,150.800 2.973,150.800 2.753 C 150.800 2.533,150.950 2.445,151.133 2.559 C 151.317 2.672,151.467 2.503,151.467 2.182 C 151.467 1.527,151.015 1.484,149.700 2.012 M247.200 1.976 C 247.200 2.183,247.408 2.481,247.662 2.638 C 247.975 2.832,248.015 2.743,247.785 2.362 C 247.499 1.887,247.549 1.883,248.110 2.338 C 248.476 2.634,248.759 2.994,248.740 3.138 C 248.638 3.911,248.871 4.041,249.477 3.549 C 249.937 3.176,250.057 3.160,249.853 3.500 C 249.662 3.818,249.789 4.000,250.200 4.000 C 250.556 4.000,250.755 4.150,250.641 4.333 C 250.528 4.517,250.662 4.667,250.939 4.667 C 251.883 4.667,251.191 2.377,250.124 1.971 C 248.861 1.491,247.200 1.494,247.200 1.976 M138.800 5.273 C 138.800 5.439,138.528 5.470,138.195 5.343 C 137.347 5.017,136.400 5.918,136.400 7.049 C 136.400 7.902,136.575 7.999,138.100 7.994 C 139.169 7.990,139.604 7.863,139.272 7.653 C 138.869 7.397,139.045 7.017,140.012 6.050 L 141.280 4.781 140.040 4.876 C 139.358 4.928,138.800 5.106,138.800 5.273 M258.649 5.209 C 258.894 5.454,259.434 5.709,259.848 5.775 C 260.261 5.840,260.575 6.188,260.544 6.547 C 260.514 6.906,260.660 7.200,260.868 7.200 C 261.077 7.200,261.136 7.380,261.000 7.600 C 260.853 7.838,261.329 8.000,262.176 8.000 C 263.409 8.000,263.600 7.872,263.600 7.049 C 263.600 5.918,262.653 5.017,261.805 5.343 C 261.472 5.470,261.200 5.437,261.200 5.269 C 261.200 5.101,260.525 4.918,259.701 4.863 C 258.596 4.788,258.319 4.879,258.649 5.209 M130.310 8.442 C 129.914 8.664,129.799 9.177,129.945 10.083 L 130.156 11.400 130.382 10.200 C 130.506 9.540,130.786 8.984,131.004 8.964 C 131.222 8.945,131.850 8.737,132.400 8.503 C 133.390 8.080,133.388 8.076,132.144 8.098 C 131.453 8.110,130.628 8.265,130.310 8.442 M268.813 8.300 C 268.843 9.005,269.932 10.034,270.196 9.606 C 270.346 9.364,270.251 8.903,269.985 8.582 C 269.472 7.964,268.792 7.800,268.813 8.300 M123.052 11.082 C 122.897 11.237,122.303 11.372,121.732 11.382 C 120.540 11.403,119.802 14.000,120.989 14.000 C 121.678 14.000,122.370 12.818,122.108 12.088 C 122.008 11.806,122.077 11.602,122.263 11.635 C 123.192 11.800,124.400 11.554,124.400 11.200 C 124.400 10.742,123.473 10.661,123.052 11.082 M275.400 11.200 C 275.259 11.428,275.604 11.600,276.200 11.600 C 276.796 11.600,277.141 11.428,277.000 11.200 C 276.864 10.980,276.504 10.800,276.200 10.800 C 275.896 10.800,275.536 10.980,275.400 11.200 M278.745 11.521 C 279.206 11.844,279.206 11.937,278.745 12.120 C 278.378 12.266,278.440 12.347,278.933 12.368 C 279.772 12.405,279.643 11.529,278.775 11.295 C 278.300 11.166,278.295 11.205,278.745 11.521 M278.745 13.158 C 279.206 13.449,279.206 13.537,278.745 13.720 C 278.365 13.871,278.412 13.946,278.900 13.968 C 279.285 13.986,279.600 13.730,279.600 13.400 C 279.600 13.070,279.285 12.803,278.900 12.806 C 278.352 12.811,278.319 12.887,278.745 13.158 M114.553 14.574 C 114.312 14.832,114.262 15.368,114.436 15.814 C 114.707 16.507,114.747 16.516,114.772 15.887 C 114.787 15.495,115.192 15.029,115.671 14.852 C 116.499 14.546,116.504 14.520,115.759 14.326 C 115.328 14.213,114.786 14.325,114.553 14.574 M284.638 14.339 C 284.510 14.546,284.692 14.827,285.044 14.961 C 285.395 15.096,285.591 15.447,285.479 15.740 C 285.366 16.033,285.435 16.526,285.631 16.836 C 285.885 17.237,285.990 17.038,285.994 16.149 C 286.000 14.875,285.072 13.636,284.638 14.339 M289.875 17.647 C 291.109 17.935,291.599 18.269,291.738 18.919 C 291.859 19.482,291.904 19.368,291.863 18.600 C 291.803 17.465,291.702 17.396,290.000 17.329 L 288.200 17.257 289.875 17.647 M297.443 20.967 C 297.576 21.315,297.861 21.600,298.076 21.600 C 298.602 21.600,298.273 20.691,297.675 20.492 C 297.382 20.394,297.293 20.577,297.443 20.967 M96.996 24.007 C 96.858 24.230,96.590 24.317,96.400 24.200 C 96.210 24.083,95.965 24.133,95.855 24.310 C 95.745 24.488,96.003 24.660,96.428 24.692 C 96.852 24.724,97.200 24.595,97.200 24.404 C 97.200 24.214,97.515 23.976,97.900 23.876 C 98.531 23.711,98.533 23.688,97.924 23.646 C 97.552 23.621,97.134 23.783,96.996 24.007 M301.511 23.884 C 302.012 23.980,302.912 24.525,303.511 25.095 C 304.110 25.665,304.347 25.984,304.038 25.804 C 303.660 25.583,303.570 25.627,303.762 25.938 C 303.919 26.192,304.217 26.400,304.424 26.400 C 305.003 26.400,304.870 25.439,304.170 24.576 C 303.824 24.149,303.655 24.025,303.794 24.300 C 303.933 24.575,303.876 24.800,303.666 24.800 C 303.457 24.800,303.182 24.530,303.055 24.200 C 302.919 23.844,302.372 23.622,301.713 23.654 C 300.753 23.701,300.725 23.733,301.511 23.884 M91.118 27.259 C 90.038 27.654,89.341 28.858,89.781 29.569 C 90.185 30.224,92.396 29.948,92.433 29.239 C 92.452 28.888,92.512 28.195,92.566 27.700 C 92.677 26.703,92.655 26.697,91.118 27.259 M307.373 27.159 C 307.907 27.368,307.999 27.553,307.672 27.755 C 307.346 27.957,307.318 28.274,307.585 28.772 C 307.798 29.169,307.858 29.608,307.719 29.747 C 307.580 29.886,308.127 30.000,308.933 30.000 C 310.422 30.000,310.843 29.316,310.086 28.125 C 309.758 27.609,307.838 26.783,307.074 26.828 C 306.813 26.844,306.948 26.993,307.373 27.159 M86.600 29.906 C 86.380 30.068,86.147 30.560,86.083 31.000 C 85.998 31.586,86.063 31.657,86.328 31.266 C 86.527 30.972,86.849 30.724,87.045 30.715 C 88.033 30.668,88.471 30.291,87.934 29.950 C 87.281 29.537,87.110 29.531,86.600 29.906 M81.006 34.252 C 80.647 34.610,80.444 35.138,80.555 35.426 C 80.665 35.713,80.540 36.036,80.278 36.143 C 79.998 36.256,79.977 36.350,80.228 36.368 C 81.122 36.434,83.288 34.119,82.584 33.849 C 81.716 33.516,81.749 33.508,81.006 34.252 M317.463 33.870 C 317.105 34.229,318.818 36.036,319.258 35.764 C 319.770 35.448,319.673 34.930,318.971 34.229 C 318.289 33.546,317.884 33.450,317.463 33.870 M76.972 36.528 C 76.652 37.363,77.052 37.908,77.590 37.370 C 77.817 37.143,77.823 36.761,77.605 36.408 C 77.298 35.911,77.202 35.930,76.972 36.528 M322.294 36.239 C 322.155 36.378,322.318 36.913,322.655 37.428 C 322.993 37.943,323.153 38.553,323.011 38.782 C 322.869 39.012,322.958 39.200,323.208 39.200 C 323.511 39.200,323.572 38.766,323.390 37.900 C 323.088 36.467,322.682 35.852,322.294 36.239 M73.706 40.052 C 73.657 40.700,73.705 40.702,74.427 40.084 C 75.375 39.272,75.378 39.236,74.479 39.304 C 74.083 39.334,73.735 39.671,73.706 40.052 M324.800 39.600 C 325.583 40.106,326.400 40.106,326.400 39.600 C 326.400 39.380,325.905 39.203,325.300 39.206 C 324.443 39.211,324.332 39.298,324.800 39.600 M66.197 45.995 C 66.332 46.213,66.191 46.295,65.885 46.177 C 65.179 45.906,64.292 46.947,64.467 47.841 C 64.616 48.601,66.222 49.011,66.607 48.388 C 66.744 48.167,67.053 48.109,67.296 48.259 C 67.583 48.437,67.643 48.289,67.468 47.833 C 67.321 47.449,67.200 46.789,67.200 46.367 C 67.200 45.939,66.924 45.600,66.576 45.600 C 66.233 45.600,66.063 45.778,66.197 45.995 M332.300 45.865 C 332.575 45.976,332.800 46.592,332.800 47.233 C 332.800 47.884,333.021 48.414,333.300 48.431 C 334.534 48.506,335.396 48.788,335.519 49.156 C 335.592 49.375,335.910 49.456,336.226 49.335 C 336.542 49.214,336.800 49.320,336.800 49.571 C 336.800 49.902,337.018 49.912,337.591 49.605 C 338.450 49.145,338.372 49.947,337.438 51.177 C 337.108 51.611,337.121 51.681,337.489 51.460 C 338.103 51.091,340.000 52.299,340.000 53.059 C 340.000 53.370,340.315 53.741,340.700 53.883 C 341.085 54.025,341.507 54.301,341.638 54.495 C 341.770 54.689,341.892 54.309,341.911 53.650 C 341.944 52.472,341.140 51.354,340.518 51.716 C 339.723 52.177,338.631 51.287,338.616 50.165 C 338.603 49.223,338.409 48.979,337.600 48.892 C 337.050 48.832,336.375 48.757,336.100 48.725 C 335.825 48.693,335.600 48.257,335.600 47.756 C 335.600 46.656,334.198 45.588,332.811 45.632 C 332.255 45.649,332.025 45.754,332.300 45.865 M61.554 48.867 C 61.529 48.940,61.447 49.537,61.371 50.194 C 61.295 50.851,61.046 51.451,60.817 51.528 C 60.588 51.604,60.400 51.875,60.400 52.129 C 60.400 52.384,60.895 52.058,61.500 51.406 C 62.678 50.135,62.909 49.170,62.100 48.900 C 61.825 48.808,61.579 48.793,61.554 48.867 M58.800 51.990 C 58.800 52.242,58.620 52.336,58.400 52.200 C 58.180 52.064,58.000 52.133,58.000 52.353 C 58.000 52.573,58.164 52.854,58.364 52.978 C 58.896 53.307,60.058 52.773,59.892 52.276 C 59.691 51.673,58.800 51.440,58.800 51.990 M58.000 54.333 C 58.000 54.590,57.640 54.800,57.200 54.800 C 56.756 54.800,56.400 55.067,56.400 55.400 C 56.400 55.730,56.591 56.000,56.824 56.000 C 57.057 56.000,57.137 55.822,57.003 55.605 C 56.867 55.386,57.012 55.307,57.328 55.428 C 57.883 55.641,58.630 54.496,58.209 54.076 C 58.094 53.961,58.000 54.077,58.000 54.333 M55.039 55.138 C 54.900 55.361,54.982 55.665,55.220 55.812 C 55.835 56.193,56.232 55.672,55.718 55.158 C 55.431 54.871,55.207 54.864,55.039 55.138 M342.477 55.230 C 342.555 55.466,342.791 55.660,343.000 55.660 C 343.209 55.660,343.445 55.466,343.523 55.230 C 343.602 54.994,343.367 54.800,343.000 54.800 C 342.633 54.800,342.398 54.994,342.477 55.230 M344.260 55.103 C 343.797 55.852,344.648 58.197,345.416 58.291 C 345.847 58.343,345.975 58.284,345.700 58.160 C 345.425 58.035,345.200 57.329,345.200 56.590 C 345.200 55.296,344.664 54.449,344.260 55.103 M54.800 57.200 C 54.800 57.640,54.590 58.000,54.333 58.000 C 54.077 58.000,53.961 58.094,54.076 58.209 C 54.496 58.630,55.641 57.883,55.428 57.328 C 55.307 57.012,55.386 56.867,55.605 57.003 C 55.822 57.137,56.000 57.057,56.000 56.824 C 56.000 56.591,55.730 56.400,55.400 56.400 C 55.067 56.400,54.800 56.756,54.800 57.200 M52.147 58.314 C 52.289 58.544,52.179 58.815,51.902 58.916 C 51.502 59.062,51.505 59.211,51.917 59.647 C 52.353 60.108,52.492 60.100,52.810 59.597 C 53.270 58.868,53.127 58.309,52.419 58.073 C 52.124 57.975,52.003 58.082,52.147 58.314 M346.787 58.417 C 346.209 58.782,346.687 59.007,347.700 58.847 C 348.355 58.744,347.947 59.247,347.100 59.588 C 346.235 59.935,346.243 59.950,347.300 59.975 C 347.980 59.990,348.400 59.790,348.400 59.449 C 348.400 58.590,347.462 57.990,346.787 58.417 M51.528 60.817 C 51.451 61.046,50.851 61.275,50.194 61.325 C 49.448 61.383,49.000 61.639,49.000 62.009 C 49.000 62.937,50.108 62.703,51.406 61.500 C 52.058 60.895,52.384 60.400,52.129 60.400 C 51.875 60.400,51.604 60.588,51.528 60.817 M348.109 61.225 C 348.357 61.623,348.689 61.869,348.846 61.772 C 349.003 61.674,349.223 61.821,349.334 62.098 C 349.474 62.443,349.546 62.413,349.565 62.000 C 349.581 61.670,349.158 61.198,348.625 60.951 C 347.745 60.543,347.698 60.568,348.109 61.225 M350.000 61.520 C 350.000 61.696,350.216 62.056,350.480 62.320 C 350.853 62.693,350.831 62.801,350.380 62.806 C 349.909 62.811,349.901 62.876,350.334 63.151 C 350.628 63.337,350.853 63.604,350.834 63.745 C 350.815 63.885,350.930 63.955,351.089 63.900 C 351.383 63.798,351.271 62.049,350.936 61.500 C 350.692 61.101,350.000 61.115,350.000 61.520 M46.431 64.963 C 46.156 65.294,46.064 65.781,46.227 66.044 C 46.415 66.348,46.354 66.419,46.062 66.238 C 45.788 66.069,45.600 66.207,45.600 66.576 C 45.600 66.924,45.939 67.200,46.367 67.200 C 46.789 67.200,47.449 67.321,47.833 67.468 C 48.289 67.643,48.437 67.583,48.259 67.296 C 48.109 67.053,48.167 66.744,48.388 66.607 C 48.608 66.471,48.729 65.964,48.657 65.480 C 48.497 64.422,47.141 64.107,46.431 64.963 M351.474 65.239 C 351.143 66.506,351.578 67.216,352.841 67.468 C 354.255 67.751,354.637 67.597,354.468 66.812 C 354.012 64.689,351.907 63.583,351.474 65.239 M39.304 74.479 C 39.236 75.378,39.272 75.375,40.084 74.427 C 40.702 73.705,40.700 73.657,40.052 73.706 C 39.671 73.735,39.334 74.083,39.304 74.479 M359.400 74.000 C 359.536 74.220,359.907 74.400,360.224 74.400 C 360.541 74.400,360.800 74.220,360.800 74.000 C 360.800 73.780,360.429 73.600,359.976 73.600 C 359.523 73.600,359.264 73.780,359.400 74.000 M36.226 77.158 C 36.104 77.355,36.256 77.613,36.563 77.731 C 37.150 77.956,37.600 77.696,37.600 77.133 C 37.600 76.687,36.505 76.706,36.226 77.158 M362.875 77.225 C 362.971 77.514,363.286 77.829,363.575 77.925 C 363.875 78.025,364.025 77.875,363.925 77.575 C 363.829 77.286,363.514 76.971,363.225 76.875 C 362.925 76.775,362.775 76.925,362.875 77.225 M36.000 80.424 C 36.000 80.657,35.836 80.746,35.636 80.622 C 34.659 80.019,33.406 81.428,33.862 82.617 C 34.049 83.106,34.338 82.966,35.249 81.945 C 36.315 80.751,36.682 80.000,36.200 80.000 C 36.090 80.000,36.000 80.191,36.000 80.424 M364.238 80.739 C 364.123 80.925,364.548 81.576,365.184 82.185 L 366.340 83.292 366.220 82.200 C 366.069 80.824,364.775 79.870,364.238 80.739 M268.600 83.993 C 246.762 84.215,246.755 84.215,245.981 86.250 C 245.771 86.801,245.600 91.901,245.600 97.583 C 245.600 107.033,245.540 107.942,244.900 108.238 C 243.846 108.725,197.578 109.099,131.770 109.152 L 72.939 109.200 72.070 110.126 L 71.200 111.052 71.214 159.426 C 71.229 211.215,71.147 209.101,73.191 210.195 C 73.688 210.461,76.145 212.712,78.650 215.198 L 83.205 219.716 83.443 222.558 C 83.838 227.287,84.220 228.292,85.966 229.183 C 87.356 229.892,116.663 258.877,119.903 262.748 L 121.207 264.305 120.303 264.631 C 119.807 264.810,108.963 265.020,96.206 265.097 C 73.192 265.236,73.005 265.243,72.106 266.088 L 71.200 266.939 71.202 295.370 C 71.205 327.730,71.019 325.845,74.503 328.810 C 77.534 331.389,78.472 332.286,85.587 339.400 C 88.007 341.820,90.173 343.980,90.401 344.200 C 90.628 344.420,91.970 345.770,93.383 347.200 C 94.795 348.630,96.163 350.004,96.423 350.252 C 97.142 350.941,99.238 353.043,99.748 353.587 C 99.996 353.853,101.460 355.316,103.000 356.840 C 104.540 358.363,105.957 359.765,106.148 359.956 C 106.602 360.409,114.791 368.598,115.244 369.052 C 115.435 369.243,116.837 370.660,118.360 372.200 C 119.884 373.740,121.320 375.180,121.552 375.400 C 126.165 379.772,131.574 385.772,131.790 386.755 C 131.963 387.540,132.438 388.127,133.160 388.447 C 134.045 388.838,134.267 389.200,134.267 390.251 C 134.267 390.973,134.153 391.495,134.014 391.409 C 133.875 391.323,133.500 391.424,133.181 391.634 C 132.761 391.909,132.988 391.997,134.000 391.952 C 136.195 391.853,136.400 391.939,136.400 392.951 C 136.400 394.479,139.315 395.892,140.056 394.723 C 140.309 394.324,140.389 394.318,140.394 394.700 C 140.397 394.975,140.754 395.200,141.187 395.200 C 141.742 395.200,141.903 395.012,141.732 394.566 C 141.557 394.112,141.406 394.067,141.196 394.407 C 140.990 394.739,140.727 394.630,140.315 394.043 C 139.992 393.582,139.632 393.302,139.514 393.420 C 139.395 393.538,139.189 393.347,139.054 392.996 C 138.919 392.646,138.972 392.459,139.170 392.582 C 139.369 392.705,139.607 392.579,139.700 392.302 C 139.912 391.669,145.888 391.728,146.530 392.370 C 147.062 392.902,145.929 394.189,144.925 394.196 C 144.564 394.198,144.195 394.470,144.104 394.800 C 143.957 395.333,143.987 395.333,144.370 394.800 C 144.666 394.386,144.893 394.336,145.100 394.639 C 145.265 394.881,145.991 395.076,146.713 395.073 C 148.244 395.066,148.886 395.581,148.958 396.873 C 148.996 397.554,149.241 397.792,149.885 397.770 C 150.366 397.754,150.685 397.863,150.593 398.012 C 150.501 398.161,151.814 398.282,153.513 398.281 L 156.600 398.279 154.300 397.894 C 152.791 397.641,152.000 397.318,152.000 396.955 C 152.000 396.309,151.362 396.215,150.996 396.807 C 150.858 397.030,150.568 397.104,150.353 396.971 C 150.100 396.815,150.109 396.551,150.377 396.228 C 150.606 395.952,150.675 395.608,150.530 395.463 C 150.385 395.318,150.496 395.200,150.776 395.200 C 151.097 395.200,151.186 395.460,151.018 395.900 C 150.831 396.390,151.017 396.315,151.639 395.648 C 152.466 394.762,152.721 394.715,155.346 394.959 C 158.303 395.234,159.198 395.798,158.071 396.678 C 157.449 397.164,157.451 397.184,158.100 396.958 C 159.187 396.580,158.924 397.108,157.700 397.762 L 156.600 398.350 158.400 398.333 C 163.833 398.281,164.400 398.363,164.400 399.200 C 164.400 400.507,169.582 400.408,169.640 399.100 C 169.678 398.237,169.693 398.241,170.000 399.200 C 170.307 400.159,170.322 400.163,170.360 399.300 C 170.419 397.967,181.600 397.867,181.600 399.200 C 181.600 399.991,181.867 400.000,204.572 400.000 L 227.544 400.000 227.718 399.100 L 227.891 398.200 227.946 399.100 C 228.013 400.213,228.800 400.305,228.800 399.200 C 228.800 398.533,229.067 398.400,230.400 398.400 C 231.733 398.400,232.000 398.533,232.000 399.200 C 232.000 400.298,233.103 400.214,233.318 399.100 L 233.491 398.200 233.546 399.100 C 233.621 400.347,236.000 400.444,236.000 399.200 C 236.000 398.470,236.271 398.399,239.100 398.387 C 251.642 398.333,251.086 398.415,251.434 396.561 C 251.722 395.023,251.246 395.119,258.213 395.197 C 263.058 395.251,263.507 395.104,263.834 393.361 C 263.997 392.488,264.324 391.991,264.745 391.974 C 265.105 391.959,266.464 391.914,267.765 391.874 C 270.067 391.802,270.135 391.768,270.291 390.607 C 270.380 389.951,270.487 389.380,270.530 389.337 C 270.573 389.294,272.406 389.217,274.604 389.165 C 279.535 389.048,279.600 389.025,279.600 387.357 C 279.600 386.010,279.614 386.000,281.500 385.963 C 285.966 385.877,285.798 385.938,285.819 384.400 C 285.837 383.033,285.879 382.997,287.612 382.872 C 288.588 382.802,289.522 382.532,289.687 382.272 C 289.913 381.917,289.989 381.924,289.994 382.300 C 289.997 382.575,290.450 382.800,291.000 382.800 C 291.900 382.800,292.000 382.640,292.000 381.200 L 292.000 379.600 295.200 379.600 L 298.400 379.600 298.400 378.000 L 298.400 376.400 301.357 376.400 C 304.425 376.400,305.089 376.019,304.535 374.576 C 304.376 374.160,304.578 373.878,305.144 373.731 C 305.639 373.601,305.878 373.320,305.719 373.055 C 305.535 372.749,305.640 372.756,306.038 373.078 C 307.377 374.160,310.800 372.634,310.800 370.956 C 310.800 370.643,311.237 370.378,311.800 370.350 C 312.350 370.322,313.025 370.278,313.300 370.250 C 313.936 370.186,314.221 368.000,313.593 368.000 C 313.340 368.000,313.206 367.782,313.295 367.515 C 313.399 367.202,314.135 367.072,315.372 367.148 C 316.492 367.217,317.192 367.110,317.056 366.891 C 316.927 366.682,317.234 366.594,317.749 366.692 C 318.865 366.906,320.000 365.886,320.000 364.671 C 320.000 363.923,320.211 363.807,321.500 363.846 C 322.879 363.889,323.578 363.498,323.594 362.676 C 323.597 362.498,323.422 362.463,323.205 362.597 C 322.954 362.752,322.933 362.506,323.149 361.920 C 323.405 361.223,323.849 360.969,324.983 360.873 C 326.452 360.749,326.476 360.720,326.336 359.247 L 326.193 357.747 327.896 357.852 C 329.127 357.927,329.600 357.803,329.600 357.405 C 329.600 357.102,329.971 356.736,330.424 356.592 C 330.878 356.448,331.443 355.905,331.679 355.386 C 332.013 354.652,332.478 354.414,333.755 354.320 C 335.275 354.209,335.409 354.105,335.522 352.948 C 335.630 351.835,335.814 351.668,337.177 351.450 C 338.546 351.231,338.738 351.055,338.973 349.802 C 339.143 348.896,339.462 348.400,339.874 348.400 C 340.225 348.400,340.757 348.085,341.057 347.700 C 341.567 347.045,341.585 347.049,341.333 347.766 C 341.147 348.295,341.209 348.442,341.532 348.242 C 341.789 348.083,342.000 347.333,342.000 346.576 C 342.000 345.548,342.172 345.200,342.680 345.200 C 343.195 345.200,343.248 345.088,342.897 344.737 C 342.546 344.386,342.260 344.410,341.717 344.837 C 341.090 345.329,341.054 345.324,341.429 344.800 C 341.665 344.470,341.881 343.775,341.908 343.255 C 341.969 342.080,342.080 341.969,343.255 341.908 C 343.775 341.881,344.470 341.665,344.800 341.429 C 345.324 341.054,345.329 341.090,344.837 341.717 C 344.410 342.260,344.386 342.546,344.737 342.897 C 345.088 343.248,345.200 343.195,345.200 342.680 C 345.200 342.172,345.548 342.000,346.576 342.000 C 347.333 342.000,348.083 341.789,348.242 341.532 C 348.442 341.209,348.295 341.147,347.766 341.333 C 347.049 341.585,347.045 341.567,347.700 341.057 C 348.085 340.757,348.400 340.225,348.400 339.874 C 348.400 339.462,348.896 339.143,349.802 338.973 C 351.055 338.738,351.231 338.546,351.450 337.177 C 351.668 335.814,351.835 335.630,352.948 335.522 C 354.110 335.409,354.209 335.279,354.322 333.720 C 354.414 332.453,354.641 331.977,355.246 331.785 C 355.688 331.645,356.247 331.096,356.489 330.565 C 356.730 330.034,357.160 329.600,357.442 329.600 C 357.796 329.600,357.924 329.071,357.852 327.896 L 357.747 326.193 359.247 326.336 C 360.720 326.476,360.749 326.452,360.873 324.983 C 360.969 323.849,361.223 323.405,361.920 323.149 C 362.506 322.933,362.752 322.954,362.597 323.205 C 362.463 323.422,362.498 323.597,362.676 323.594 C 363.498 323.578,363.889 322.879,363.846 321.500 C 363.807 320.211,363.923 320.000,364.671 320.000 C 365.886 320.000,366.906 318.865,366.692 317.749 C 366.594 317.234,366.682 316.927,366.891 317.056 C 367.110 317.192,367.217 316.492,367.148 315.372 C 367.072 314.135,367.202 313.399,367.515 313.295 C 367.782 313.206,368.000 313.340,368.000 313.593 C 368.000 314.221,370.186 313.936,370.250 313.300 C 370.278 313.025,370.322 312.350,370.350 311.800 C 370.378 311.237,370.643 310.800,370.956 310.800 C 372.634 310.800,374.160 307.377,373.078 306.038 C 372.756 305.640,372.749 305.535,373.055 305.719 C 373.320 305.878,373.601 305.639,373.731 305.144 C 373.878 304.578,374.160 304.376,374.576 304.535 C 376.019 305.089,376.400 304.425,376.400 301.357 L 376.400 298.400 378.000 298.400 L 379.600 298.400 379.600 295.200 L 379.600 292.000 381.200 292.000 C 382.640 292.000,382.800 291.900,382.800 291.000 C 382.800 290.450,382.575 289.997,382.300 289.994 C 381.924 289.989,381.917 289.913,382.272 289.687 C 382.532 289.522,382.802 288.588,382.872 287.612 C 382.997 285.879,383.033 285.837,384.400 285.819 C 385.938 285.798,385.877 285.966,385.963 281.500 C 386.000 279.614,386.010 279.600,387.357 279.600 C 389.025 279.600,389.048 279.535,389.165 274.604 C 389.217 272.406,389.294 270.573,389.337 270.530 C 389.380 270.487,389.951 270.380,390.607 270.291 C 391.768 270.135,391.802 270.067,391.874 267.765 C 391.914 266.464,391.959 265.105,391.974 264.745 C 391.991 264.324,392.488 263.997,393.361 263.834 C 395.104 263.507,395.251 263.058,395.197 258.213 C 395.119 251.246,395.023 251.722,396.561 251.434 C 398.415 251.086,398.333 251.642,398.387 239.100 C 398.399 236.271,398.470 236.000,399.200 236.000 C 400.426 236.000,400.335 233.720,399.100 233.482 L 398.200 233.309 399.100 233.254 C 400.219 233.187,400.314 232.000,399.200 232.000 C 398.533 232.000,398.400 231.733,398.400 230.400 C 398.400 229.067,398.533 228.800,399.200 228.800 C 400.291 228.800,400.215 228.097,399.100 227.882 L 398.200 227.709 399.100 227.654 L 400.000 227.600 400.000 198.228 L 400.000 168.856 399.100 168.682 L 398.200 168.509 399.100 168.454 C 400.213 168.387,400.305 167.600,399.200 167.600 C 398.667 167.600,398.400 167.333,398.400 166.800 C 398.400 166.267,398.667 166.000,399.200 166.000 C 399.733 166.000,400.000 165.733,400.000 165.200 C 400.000 164.667,399.733 164.400,399.200 164.400 C 398.314 164.400,398.342 164.690,398.354 155.600 C 398.363 149.318,398.266 148.939,396.577 148.622 C 395.233 148.370,395.200 148.318,395.200 146.425 C 395.200 144.371,394.860 144.000,392.981 144.000 C 392.425 144.000,391.843 143.653,391.582 143.166 C 391.336 142.708,390.499 142.066,389.720 141.741 C 388.579 141.264,385.449 138.406,383.000 135.605 C 382.780 135.353,380.800 133.367,378.600 131.190 C 376.400 129.014,374.285 126.911,373.900 126.517 C 372.310 124.890,364.793 117.370,364.386 117.000 C 363.779 116.448,358.551 111.215,358.137 110.745 C 357.951 110.535,355.910 108.488,353.600 106.196 C 351.290 103.905,349.130 101.742,348.800 101.389 C 348.470 101.036,347.029 99.635,345.598 98.274 C 344.167 96.913,342.160 94.855,341.137 93.700 C 340.115 92.545,339.096 91.600,338.874 91.600 C 338.187 91.600,336.368 89.151,335.357 86.864 C 334.826 85.664,334.079 84.445,333.696 84.154 C 332.955 83.591,312.993 83.542,268.600 83.993 M331.126 84.821 C 332.629 85.144,333.221 85.496,333.646 86.321 C 334.567 88.114,334.671 322.708,333.751 324.646 C 332.654 326.958,332.581 326.971,317.600 327.343 C 288.696 328.061,201.727 327.477,199.920 326.553 C 199.015 326.089,188.707 326.000,136.249 326.000 L 73.658 326.000 72.829 324.946 C 72.008 323.902,72.000 323.619,72.000 295.369 L 72.000 266.845 72.889 266.223 C 73.687 265.664,82.429 265.599,157.989 265.590 C 238.762 265.581,244.658 265.502,245.749 264.411 C 246.072 264.088,246.231 256.447,246.308 237.395 L 246.417 210.829 245.366 210.141 C 244.540 209.599,243.124 209.414,238.746 209.274 C 231.078 209.030,231.600 208.349,231.600 218.592 C 231.600 226.449,231.576 226.682,230.700 227.484 L 229.800 228.308 157.961 228.054 C 97.935 227.842,86.014 227.710,85.461 227.251 C 84.887 226.774,84.800 225.663,84.800 218.826 C 84.800 208.736,85.105 209.200,78.473 209.200 C 74.871 209.200,73.571 209.055,72.889 208.577 L 72.000 207.955 72.000 159.426 C 72.000 114.775,72.053 110.854,72.661 110.349 C 73.216 109.889,87.150 109.768,158.761 109.600 C 224.967 109.445,244.448 109.290,245.300 108.910 L 246.400 108.420 246.409 98.710 C 246.417 90.025,246.498 88.823,247.180 87.321 L 247.942 85.642 267.871 85.460 C 278.832 85.360,288.790 85.106,290.000 84.895 C 293.109 84.355,328.650 84.291,331.126 84.821 M29.810 86.719 C 29.694 87.021,29.752 87.543,29.940 87.878 C 30.249 88.430,31.036 87.476,30.792 86.845 C 30.759 86.759,30.970 86.542,31.261 86.362 C 31.624 86.138,31.513 86.056,30.905 86.102 C 30.419 86.139,29.926 86.416,29.810 86.719 M369.024 86.587 C 369.451 86.910,369.643 87.180,369.451 87.187 C 369.259 87.194,369.320 87.462,369.585 87.782 C 369.851 88.103,369.953 88.553,369.811 88.782 C 369.669 89.012,369.741 89.200,369.972 89.200 C 370.322 89.200,370.344 88.309,370.045 86.300 C 370.020 86.135,369.606 86.000,369.124 86.000 C 368.267 86.000,368.265 86.013,369.024 86.587 M27.849 90.209 C 27.492 90.565,27.200 91.010,27.200 91.196 C 27.200 91.382,27.102 91.790,26.982 92.102 C 26.828 92.504,27.031 92.640,27.682 92.568 C 28.187 92.512,28.899 92.452,29.265 92.433 C 29.756 92.409,29.913 92.061,29.865 91.105 C 29.790 89.613,28.858 89.199,27.849 90.209 M370.324 91.000 C 370.414 91.770,370.693 92.412,370.944 92.428 C 371.195 92.443,371.874 92.518,372.453 92.595 L 373.506 92.735 372.885 91.468 C 371.718 89.091,370.066 88.789,370.324 91.000 M24.350 95.800 C 24.210 96.361,24.104 96.661,23.816 97.317 C 23.643 97.712,23.613 98.147,23.751 98.284 C 23.888 98.421,24.000 98.233,24.000 97.867 C 24.000 97.500,24.169 97.200,24.375 97.200 C 24.581 97.200,24.723 96.840,24.690 96.400 C 24.634 95.650,24.463 95.349,24.350 95.800 M378.590 102.248 C 378.947 102.604,379.338 102.796,379.459 102.674 C 379.815 102.318,379.206 101.600,378.548 101.600 C 378.025 101.600,378.031 101.688,378.590 102.248 M14.553 114.574 C 14.312 114.832,14.262 115.368,14.436 115.814 C 14.707 116.507,14.747 116.516,14.772 115.887 C 14.787 115.495,15.192 115.029,15.671 114.852 C 16.499 114.546,16.504 114.520,15.759 114.326 C 15.328 114.213,14.786 114.325,14.553 114.574 M384.638 114.339 C 384.510 114.546,384.692 114.827,385.044 114.961 C 385.395 115.096,385.599 115.430,385.497 115.703 C 385.394 115.977,385.453 116.560,385.627 117.000 C 385.875 117.626,385.950 117.484,385.972 116.349 C 385.999 114.924,385.107 113.580,384.638 114.339 M11.323 121.059 C 11.226 121.311,11.187 121.761,11.236 122.059 C 11.286 122.356,11.186 122.923,11.014 123.317 C 10.842 123.712,10.813 124.147,10.951 124.284 C 11.333 124.667,11.589 124.243,11.686 123.064 C 11.735 122.474,11.961 122.059,12.188 122.142 C 12.827 122.374,14.000 121.637,14.000 121.002 C 14.000 120.308,11.594 120.359,11.323 121.059 M386.046 121.294 C 386.081 121.971,386.139 122.023,386.276 121.500 C 386.542 120.481,388.000 121.237,388.000 122.395 C 388.000 122.644,388.163 122.746,388.363 122.623 C 388.562 122.500,388.636 122.739,388.528 123.154 C 388.419 123.570,388.488 124.007,388.680 124.126 C 389.161 124.423,389.268 122.631,388.838 121.500 C 388.327 120.157,385.979 119.983,386.046 121.294 M130.568 123.799 C 129.486 124.349,127.996 124.999,127.258 125.244 C 126.247 125.580,125.729 126.111,125.162 127.392 C 124.748 128.328,124.153 129.307,123.840 129.567 C 122.039 131.061,122.058 137.283,123.872 140.263 C 129.138 148.914,138.369 149.241,144.671 141.000 L 146.200 139.000 146.200 134.929 C 146.200 131.300,146.102 130.736,145.295 129.729 C 144.797 129.108,144.078 127.994,143.698 127.253 C 141.916 123.781,134.464 121.820,130.568 123.799 M8.520 130.129 C 8.386 130.346,8.221 131.171,8.153 131.962 C 8.036 133.319,8.055 133.344,8.479 132.400 C 8.727 131.850,8.945 131.222,8.964 131.004 C 8.984 130.786,9.540 130.506,10.200 130.382 L 11.400 130.156 10.082 129.945 C 9.358 129.828,8.655 129.911,8.520 130.129 M390.463 129.961 C 390.043 130.221,390.069 130.341,390.592 130.542 C 390.954 130.681,391.139 130.976,391.002 131.197 C 390.865 131.419,391.017 131.600,391.341 131.600 C 391.974 131.600,391.993 130.633,391.373 130.013 C 391.164 129.804,390.755 129.781,390.463 129.961 M5.604 136.995 C 5.333 137.322,5.215 137.862,5.343 138.195 C 5.470 138.528,5.439 138.800,5.273 138.800 C 5.106 138.800,4.928 139.358,4.876 140.040 L 4.781 141.280 6.050 140.012 C 7.017 139.045,7.397 138.869,7.653 139.272 C 7.863 139.604,7.990 139.169,7.994 138.100 C 8.001 136.254,6.713 135.659,5.604 136.995 M392.000 137.867 C 392.000 138.673,392.111 139.222,392.248 139.086 C 392.384 138.950,392.767 139.110,393.099 139.442 C 393.431 139.774,393.939 139.956,394.227 139.845 C 394.515 139.735,394.830 139.949,394.927 140.322 C 395.025 140.695,395.036 140.208,394.952 139.240 C 394.681 136.119,392.000 134.872,392.000 137.867 M1.990 149.826 C 1.466 151.205,1.497 151.467,2.182 151.467 C 2.503 151.467,2.672 151.317,2.559 151.133 C 2.445 150.950,2.533 150.800,2.753 150.800 C 2.973 150.800,3.269 150.989,3.412 151.219 C 3.791 151.832,4.807 150.884,4.534 150.173 C 4.414 149.860,4.174 149.693,4.000 149.800 C 3.826 149.907,3.581 149.726,3.454 149.398 C 3.104 148.485,2.424 148.684,1.990 149.826 M396.000 151.933 C 396.000 152.117,396.270 152.267,396.600 152.267 C 396.930 152.267,397.200 152.087,397.200 151.867 C 397.200 151.647,397.320 151.587,397.467 151.734 C 398.047 152.314,397.879 155.400,397.239 155.930 C 396.888 156.221,396.786 156.369,397.014 156.259 C 397.242 156.149,397.429 156.364,397.429 156.737 C 397.429 157.218,397.074 157.427,396.214 157.454 C 395.546 157.475,395.245 157.404,395.545 157.298 C 395.969 157.146,395.980 157.035,395.594 156.796 C 395.166 156.532,395.066 154.970,395.294 152.100 C 395.337 151.552,396.000 151.395,396.000 151.933 M0.000 235.200 C 0.000 235.733,0.267 236.000,0.800 236.000 C 1.333 236.000,1.600 235.733,1.600 235.200 C 1.600 234.667,1.333 234.400,0.800 234.400 C 0.267 234.400,0.000 234.667,0.000 235.200 M396.223 248.136 C 396.538 248.015,396.679 247.727,396.536 247.496 C 396.379 247.242,396.470 247.196,396.768 247.380 C 397.132 247.605,397.047 247.883,396.447 248.442 C 395.339 249.474,395.191 249.407,395.254 247.900 C 395.292 246.999,395.361 246.870,395.479 247.478 C 395.589 248.041,395.855 248.277,396.223 248.136 M1.600 248.174 C 1.600 249.992,2.276 251.091,3.505 251.271 C 4.262 251.382,4.667 251.267,4.667 250.939 C 4.667 250.662,4.517 250.528,4.333 250.641 C 4.150 250.755,4.000 250.556,4.000 250.200 C 4.000 249.789,3.818 249.662,3.500 249.853 C 3.160 250.057,3.176 249.937,3.549 249.477 C 4.041 248.871,3.911 248.638,3.138 248.740 C 2.994 248.759,2.634 248.476,2.338 248.110 C 1.883 247.549,1.887 247.499,2.362 247.785 C 2.743 248.015,2.832 247.975,2.638 247.662 C 2.154 246.878,1.600 247.151,1.600 248.174 M393.600 258.595 C 393.600 258.734,393.432 258.744,393.228 258.617 C 393.023 258.491,392.742 258.570,392.604 258.793 C 392.459 259.028,392.785 259.200,393.376 259.200 C 393.939 259.200,394.397 259.335,394.394 259.500 C 394.374 260.463,392.678 261.174,392.209 260.415 C 392.059 260.172,392.247 260.100,392.679 260.237 C 393.372 260.457,393.372 260.443,392.682 259.875 C 392.170 259.455,392.038 258.988,392.222 258.254 C 392.460 257.307,393.600 257.589,393.600 258.595 M4.863 259.701 C 4.918 260.525,5.101 261.200,5.269 261.200 C 5.437 261.200,5.470 261.472,5.343 261.805 C 5.017 262.653,5.918 263.600,7.049 263.600 C 7.872 263.600,8.000 263.409,8.000 262.176 C 8.000 261.329,7.838 260.853,7.600 261.000 C 7.380 261.136,7.200 261.077,7.200 260.868 C 7.200 260.660,6.906 260.514,6.547 260.544 C 6.188 260.575,5.840 260.261,5.775 259.848 C 5.524 258.263,4.757 258.140,4.863 259.701 M389.450 267.910 C 388.886 268.463,388.772 268.481,388.873 268.000 C 389.015 267.329,389.676 266.743,389.965 267.031 C 390.068 267.135,389.836 267.530,389.450 267.910 M391.015 269.118 C 390.663 269.470,389.995 268.331,390.282 267.868 C 390.408 267.664,390.682 267.804,390.892 268.179 C 391.102 268.553,391.157 268.976,391.015 269.118 M8.000 269.151 C 8.000 269.744,9.139 270.485,9.606 270.196 C 9.899 270.015,9.805 269.739,9.324 269.374 C 8.482 268.736,8.000 268.655,8.000 269.151 M10.934 275.827 C 10.802 276.172,10.898 276.658,11.147 276.907 C 11.484 277.244,11.600 277.084,11.600 276.280 C 11.600 275.077,11.301 274.873,10.934 275.827 M11.355 278.865 C 11.512 279.666,12.400 279.724,12.394 278.933 C 12.389 278.367,12.309 278.324,12.042 278.745 C 11.800 279.128,11.632 279.155,11.478 278.835 C 11.330 278.525,11.290 278.534,11.355 278.865 M12.832 278.900 C 12.814 279.285,13.070 279.600,13.400 279.600 C 13.730 279.600,13.997 279.285,13.994 278.900 C 13.989 278.352,13.913 278.319,13.642 278.745 C 13.351 279.206,13.263 279.206,13.080 278.745 C 12.929 278.365,12.854 278.412,12.832 278.900 M384.602 284.397 C 383.672 285.425,383.102 285.260,382.921 283.908 C 382.759 282.698,383.834 282.202,384.773 283.055 C 385.268 283.504,385.245 283.688,384.602 284.397 M384.263 283.118 C 384.339 283.237,384.103 283.665,383.739 284.068 C 383.374 284.470,383.262 284.800,383.489 284.800 C 384.184 284.800,384.974 283.606,384.526 283.233 C 384.305 283.050,384.187 282.998,384.263 283.118 M14.264 284.669 C 13.755 285.178,14.924 286.000,16.149 285.994 C 17.065 285.989,17.245 285.889,16.819 285.620 C 16.500 285.418,16.067 285.358,15.858 285.488 C 15.650 285.617,15.263 285.428,15.000 285.067 C 14.736 284.707,14.405 284.528,14.264 284.669 M17.329 290.000 C 17.396 291.702,17.465 291.803,18.600 291.863 C 19.368 291.904,19.482 291.859,18.919 291.738 C 18.269 291.599,17.935 291.109,17.647 289.875 L 17.257 288.200 17.329 290.000 M20.492 297.675 C 20.691 298.273,21.600 298.602,21.600 298.076 C 21.600 297.861,21.315 297.576,20.967 297.443 C 20.577 297.293,20.394 297.382,20.492 297.675 M23.654 301.713 C 23.622 302.372,23.844 302.919,24.200 303.055 C 24.530 303.182,24.800 303.457,24.800 303.666 C 24.800 303.876,24.575 303.933,24.300 303.794 C 24.025 303.655,24.149 303.824,24.576 304.170 C 25.439 304.870,26.400 305.003,26.400 304.424 C 26.400 304.217,26.192 303.919,25.938 303.762 C 25.627 303.570,25.583 303.660,25.804 304.038 C 25.984 304.347,25.665 304.110,25.095 303.511 C 24.525 302.912,23.980 302.012,23.884 301.511 C 23.733 300.725,23.701 300.753,23.654 301.713 M26.828 307.074 C 26.783 307.838,27.609 309.758,28.125 310.086 C 29.316 310.843,30.000 310.422,30.000 308.933 C 30.000 308.127,29.886 307.580,29.747 307.719 C 29.608 307.858,29.169 307.798,28.772 307.585 C 28.274 307.318,27.957 307.346,27.755 307.672 C 27.553 307.999,27.368 307.907,27.159 307.373 C 26.993 306.948,26.844 306.813,26.828 307.074 M369.300 311.170 C 369.815 311.221,369.628 312.266,369.100 312.286 C 368.825 312.296,368.240 312.422,367.800 312.565 C 367.195 312.761,367.220 312.709,367.900 312.351 C 369.015 311.764,369.080 311.202,368.000 311.484 C 367.555 311.601,367.200 311.496,367.200 311.249 C 367.200 311.005,367.605 310.881,368.100 310.973 C 368.595 311.065,369.135 311.154,369.300 311.170 M33.841 317.534 C 33.492 318.099,33.954 319.097,34.698 319.382 C 35.822 319.814,36.041 318.978,35.047 318.045 C 34.499 317.529,33.980 317.309,33.841 317.534 M36.214 322.377 C 35.930 322.837,36.257 323.032,37.900 323.385 C 38.769 323.571,39.200 323.512,39.200 323.208 C 39.200 322.958,39.012 322.869,38.782 323.011 C 38.553 323.153,37.932 322.985,37.403 322.639 C 36.870 322.289,36.340 322.173,36.214 322.377 M39.206 325.300 C 39.203 325.905,39.380 326.400,39.600 326.400 C 40.106 326.400,40.106 325.583,39.600 324.800 C 39.298 324.332,39.211 324.443,39.206 325.300 M45.632 332.811 C 45.588 334.198,46.656 335.600,47.756 335.600 C 48.257 335.600,48.693 335.825,48.725 336.100 C 48.757 336.375,48.832 337.050,48.892 337.600 C 48.979 338.409,49.223 338.603,50.165 338.616 C 51.287 338.631,52.177 339.723,51.716 340.518 C 51.354 341.140,52.472 341.944,53.650 341.911 C 54.309 341.892,54.689 341.770,54.495 341.638 C 54.301 341.507,54.025 341.085,53.883 340.700 C 53.741 340.315,53.370 340.000,53.059 340.000 C 52.299 340.000,51.091 338.103,51.460 337.489 C 51.681 337.121,51.611 337.108,51.177 337.438 C 49.947 338.372,49.145 338.450,49.605 337.591 C 49.912 337.018,49.902 336.800,49.571 336.800 C 49.320 336.800,49.214 336.542,49.335 336.226 C 49.456 335.910,49.375 335.592,49.156 335.519 C 48.788 335.396,48.506 334.534,48.431 333.300 C 48.414 333.021,47.884 332.800,47.233 332.800 C 46.592 332.800,45.976 332.575,45.865 332.300 C 45.754 332.025,45.649 332.255,45.632 332.811 M346.721 339.884 C 345.690 340.982,345.335 341.037,345.327 340.100 C 345.320 339.270,345.877 338.840,346.865 338.915 C 347.517 338.964,347.504 339.051,346.721 339.884 M54.800 343.000 C 54.800 343.367,54.994 343.602,55.230 343.523 C 55.466 343.445,55.660 343.209,55.660 343.000 C 55.660 342.791,55.466 342.555,55.230 342.477 C 54.994 342.398,54.800 342.633,54.800 343.000 M342.991 343.579 C 343.067 344.605,343.592 345.200,344.424 345.200 C 345.304 345.200,345.512 343.840,344.707 343.343 C 343.834 342.803,342.943 342.926,342.991 343.579 M55.070 344.263 C 54.571 344.763,55.280 345.200,56.590 345.200 C 57.329 345.200,58.024 345.425,58.135 345.700 C 58.254 345.994,58.350 345.906,58.368 345.487 C 58.386 345.096,58.175 344.706,57.900 344.621 C 56.520 344.196,55.293 344.041,55.070 344.263 M340.800 345.615 C 340.800 345.750,340.374 346.261,339.854 346.750 L 338.907 347.639 339.003 346.719 C 339.055 346.214,339.121 345.676,339.149 345.525 C 339.212 345.187,340.800 345.274,340.800 345.615 M58.287 346.918 C 58.034 347.578,58.695 348.400,59.480 348.400 C 59.787 348.400,59.990 347.949,59.975 347.300 C 59.950 346.243,59.935 346.235,59.588 347.100 C 59.389 347.595,59.119 348.000,58.989 348.000 C 58.859 348.000,58.842 347.856,58.950 347.681 C 59.058 347.505,59.004 347.130,58.829 346.847 C 58.578 346.440,58.464 346.455,58.287 346.918 M60.951 348.625 C 61.198 349.158,61.670 349.581,62.000 349.565 C 62.413 349.546,62.443 349.474,62.098 349.334 C 61.821 349.223,61.674 349.003,61.772 348.846 C 61.869 348.689,61.623 348.357,61.225 348.109 C 60.568 347.698,60.543 347.745,60.951 348.625 M61.200 350.376 C 61.200 351.059,63.684 351.715,63.900 351.089 C 63.955 350.930,63.885 350.815,63.745 350.834 C 63.604 350.853,63.337 350.628,63.151 350.334 C 62.876 349.901,62.811 349.909,62.806 350.380 C 62.801 350.831,62.693 350.853,62.320 350.480 C 61.746 349.906,61.200 349.855,61.200 350.376 M65.077 351.480 C 63.896 351.786,64.417 353.309,65.967 354.082 C 66.719 354.458,67.470 354.680,67.637 354.577 C 68.357 354.132,66.854 351.081,66.000 351.253 C 65.890 351.275,65.474 351.377,65.077 351.480 M73.600 359.976 C 73.600 360.429,73.780 360.800,74.000 360.800 C 74.220 360.800,74.400 360.541,74.400 360.224 C 74.400 359.907,74.220 359.536,74.000 359.400 C 73.780 359.264,73.600 359.523,73.600 359.976 M76.875 363.225 C 76.971 363.514,77.286 363.829,77.575 363.925 C 77.875 364.025,78.025 363.875,77.925 363.575 C 77.829 363.286,77.514 362.971,77.225 362.875 C 76.925 362.775,76.775 362.925,76.875 363.225 M80.622 364.364 C 80.372 364.770,80.742 365.972,81.143 366.051 C 83.149 366.449,83.282 366.329,82.149 365.147 C 80.913 363.856,80.930 363.865,80.622 364.364 M311.484 368.000 C 311.202 369.080,311.764 369.015,312.351 367.900 C 312.709 367.220,312.761 367.195,312.565 367.800 C 312.422 368.240,312.296 368.825,312.286 369.100 C 312.266 369.628,311.221 369.815,311.170 369.300 C 311.154 369.135,311.065 368.595,310.973 368.100 C 310.881 367.605,311.005 367.200,311.249 367.200 C 311.496 367.200,311.601 367.555,311.484 368.000 M86.000 369.124 C 86.000 369.606,86.135 370.020,86.300 370.045 C 88.309 370.344,89.200 370.322,89.200 369.972 C 89.200 369.741,89.012 369.669,88.782 369.811 C 88.553 369.953,88.103 369.851,87.782 369.585 C 87.462 369.320,87.194 369.259,87.187 369.451 C 87.180 369.643,86.910 369.451,86.587 369.024 C 86.013 368.265,86.000 368.267,86.000 369.124 M89.606 370.780 C 89.615 371.695,90.054 372.191,91.468 372.885 L 92.735 373.506 92.595 372.453 C 92.518 371.874,92.443 371.195,92.428 370.944 C 92.382 370.195,89.599 370.033,89.606 370.780 M101.600 378.548 C 101.600 379.206,102.318 379.815,102.674 379.459 C 102.796 379.338,102.604 378.947,102.248 378.590 C 101.688 378.031,101.600 378.025,101.600 378.548 M285.087 383.460 C 285.160 383.679,284.858 384.185,284.417 384.584 C 283.442 385.467,282.361 384.837,282.690 383.578 C 282.909 382.742,284.816 382.647,285.087 383.460 M284.012 383.786 C 283.735 384.119,283.305 384.277,283.055 384.137 C 282.792 383.990,282.812 384.111,283.103 384.424 C 283.524 384.878,283.715 384.856,284.279 384.292 C 284.649 383.922,284.854 383.520,284.733 383.400 C 284.613 383.279,284.288 383.453,284.012 383.786 M114.264 384.669 C 113.716 385.217,114.967 385.999,116.349 385.972 C 117.492 385.950,117.630 385.876,117.000 385.622 C 116.560 385.445,116.038 385.395,115.839 385.511 C 115.641 385.627,115.263 385.428,115.000 385.067 C 114.736 384.707,114.405 384.528,114.264 384.669 M120.482 387.244 C 120.549 388.124,120.846 388.589,121.500 388.838 C 122.631 389.268,124.423 389.161,124.126 388.680 C 124.007 388.488,123.570 388.419,123.154 388.528 C 122.739 388.636,122.500 388.562,122.623 388.363 C 122.746 388.163,122.644 388.000,122.395 388.000 C 121.237 388.000,120.481 386.542,121.500 386.276 C 122.023 386.139,121.971 386.081,121.294 386.046 C 120.518 386.007,120.401 386.179,120.482 387.244 M267.945 389.467 C 267.701 389.760,267.350 390.000,267.164 390.000 C 266.977 390.000,266.917 389.760,267.030 389.467 C 267.142 389.173,267.494 388.933,267.811 388.933 C 268.246 388.933,268.279 389.064,267.945 389.467 M129.883 390.302 C 129.768 390.904,129.758 391.531,129.860 391.698 C 130.155 392.174,132.000 392.050,132.000 391.553 C 132.000 391.293,131.584 391.186,131.000 391.298 C 129.877 391.513,129.837 391.452,130.401 390.398 C 130.630 389.971,130.649 389.554,130.447 389.429 C 130.251 389.308,129.997 389.701,129.883 390.302 M269.200 390.886 C 269.200 391.106,268.915 391.176,268.567 391.043 C 268.219 390.909,267.849 390.800,267.744 390.800 C 267.639 390.800,267.659 390.628,267.789 390.417 C 268.076 389.953,269.200 390.326,269.200 390.886 M259.889 392.700 C 260.436 393.364,260.454 393.363,260.237 392.679 C 260.100 392.247,260.172 392.059,260.415 392.209 C 261.174 392.678,260.463 394.374,259.500 394.394 C 259.335 394.397,259.200 393.939,259.200 393.376 C 259.200 392.785,259.028 392.459,258.793 392.604 C 258.570 392.742,258.491 393.023,258.617 393.228 C 258.971 393.800,258.412 393.669,257.772 393.029 C 257.278 392.535,257.295 392.434,257.901 392.276 C 259.136 391.953,259.302 391.988,259.889 392.700 M249.200 395.417 C 249.200 396.080,247.661 397.223,247.380 396.768 C 247.196 396.470,247.242 396.379,247.496 396.536 C 247.727 396.679,248.015 396.538,248.136 396.223 C 248.277 395.855,248.041 395.589,247.478 395.479 C 246.870 395.361,246.999 395.292,247.900 395.254 C 248.615 395.225,249.200 395.298,249.200 395.417 " stroke="none" fill="#fb6c04" fill-rule="evenodd"></path></g></svg>